<svg width="22" height="24" viewBox="0 0 22 24" fill="none" xmlns="http://www.w3.org/2000/svg">
<path d="M17.6667 8.2C17.6667 6.29044 16.9643 4.45909 15.714 3.10884C14.4638 1.75857 12.7681 1 11 1C9.23189 1 7.5362 1.75857 6.28596 3.10884C5.03571 4.45909 4.33333 6.29044 4.33333 8.2C4.33333 16.6 1 19 1 19H21C21 19 17.6667 16.6 17.6667 8.2Z" stroke="black" stroke-width="2" stroke-linecap="round" stroke-linejoin="round"/>
<path d="M13 22C12.7968 22.3042 12.5051 22.5566 12.154 22.7321C11.803 22.9076 11.4051 23 11 23C10.5949 23 10.197 22.9076 9.84601 22.7321C9.49503 22.5566 9.20324 22.3042 9 22" stroke="black" stroke-width="2" stroke-linecap="round" stroke-linejoin="round"/>
</svg>
