<svg width="16" height="16" viewBox="0 0 16 16" fill="none" xmlns="http://www.w3.org/2000/svg">
<path fill-rule="evenodd" clip-rule="evenodd" d="M13.4714 4.5282C13.5964 4.65322 13.6666 4.82276 13.6666 4.99953C13.6666 5.17631 13.5964 5.34585 13.4714 5.47087L7.13811 11.8042C7.01309 11.9292 6.84355 11.9994 6.66678 11.9994C6.49 11.9994 6.32046 11.9292 6.19544 11.8042L3.19544 8.8042C3.074 8.67846 3.00681 8.51006 3.00833 8.33527C3.00984 8.16047 3.07996 7.99326 3.20356 7.86965C3.32717 7.74605 3.49438 7.67594 3.66917 7.67442C3.84397 7.6729 4.01237 7.74009 4.13811 7.86153L6.66678 10.3902L12.5288 4.5282C12.6538 4.40322 12.8233 4.33301 13.0001 4.33301C13.1769 4.33301 13.3464 4.40322 13.4714 4.5282Z" fill="white"/>
</svg>
