<svg width="30" height="34" viewBox="0 0 30 34" fill="none" xmlns="http://www.w3.org/2000/svg">
<path d="M15.7395 3L2 13.2765V31.5617H19.6008C22.4509 28.0068 25.3009 24.4417 28.151 20.8868V12.6125L15.7395 3Z" stroke="black" stroke-width="3.51" stroke-miterlimit="10"/>
<path d="M18.1809 20.1616H28.1816L28.1918 20.8563L19.5906 31.5414H18.1809V20.1616Z" fill="#7EF422"/>
<path d="M25.0047 21.9493L19.9789 28.1908V25.8413V21.9391H25.0047M29.9591 18.3535H16.3933C16.3933 23.3488 16.3933 28.3338 16.3933 33.329C17.7519 33.329 19.1003 33.329 20.459 33.329C23.6359 29.3757 26.823 25.4327 30 21.4794C29.9898 20.4374 29.9795 19.3955 29.9591 18.3637V18.3535Z" fill="black"/>
</svg>
