<svg width="16" height="16" viewBox="0 0 16 16" fill="none" xmlns="http://www.w3.org/2000/svg">
<g clip-path="url(#clip0_68_4320)">
<path d="M16 8.00009C16 8.51183 15.2809 8.94615 15.1853 9.42972C15.0868 9.92801 15.5829 10.6038 15.3929 11.0623C15.1995 11.5288 14.3689 11.6549 14.0912 12.0695C13.8115 12.4873 14.011 13.3027 13.6569 13.6568C13.3027 14.011 12.4873 13.8115 12.0695 14.0912C11.6548 14.3688 11.5289 15.1993 11.0624 15.3929C10.6039 15.5829 9.92808 15.0866 9.4298 15.1853C8.94623 15.2809 8.51173 16 8 16C7.48827 16 7.05395 15.2809 6.57038 15.1853C6.0721 15.0868 5.39627 15.5829 4.93778 15.3929C4.4713 15.1995 4.34518 14.3688 3.93067 14.0912C3.51289 13.8115 2.6975 14.011 2.34332 13.6568C1.98914 13.3027 2.18867 12.4873 1.909 12.0695C1.63133 11.6548 0.800854 11.5288 0.607319 11.0623C0.417236 10.6038 0.913522 9.92801 0.814847 9.42972C0.716171 8.93143 0 8.51183 0 8.00009C0 7.48835 0.719079 7.05403 0.814665 6.57046C0.913159 6.07217 0.417055 5.39633 0.607137 4.93784C0.79722 4.47935 1.63115 4.34523 1.90882 3.93072C2.18849 3.51293 1.98896 2.69753 2.34314 2.34335C2.69732 1.98916 3.51271 2.1887 3.93049 1.90902C4.34518 1.63135 4.47112 0.800863 4.9376 0.607326C5.40408 0.413788 6.07192 0.913533 6.5702 0.814856C7.05377 0.719087 7.48827 0 8 0C8.51173 0 8.94605 0.719087 9.42962 0.814674C9.9279 0.913169 10.6037 0.417059 11.0622 0.607144C11.5207 0.797229 11.6548 1.63117 12.0693 1.90884C12.4838 2.18652 13.3025 1.98898 13.6567 2.34317C14.0109 2.69735 13.8113 3.51275 14.091 3.93054C14.3687 4.34523 15.1991 4.47117 15.3927 4.93766C15.5828 5.39615 15.0865 6.07199 15.1852 6.57028C15.2807 7.05385 15.9998 7.48835 15.9998 8.00009H16Z" fill="#7EF422"/>
<path fill-rule="evenodd" clip-rule="evenodd" d="M11.8462 5.18484C11.9447 5.30309 12 5.46345 12 5.63066C12 5.79787 11.9447 5.95823 11.8462 6.07649L7.90901 10.8029C7.85698 10.8654 7.79521 10.915 7.72722 10.9488C7.65923 10.9826 7.58636 11 7.51277 11C7.43918 11 7.36631 10.9826 7.29832 10.9488C7.23033 10.915 7.16856 10.8654 7.11653 10.8029L5.16036 8.45506C5.11019 8.39689 5.07018 8.32731 5.04265 8.25037C5.01512 8.17344 5.00063 8.09069 5.00002 8.00696C4.99941 7.92323 5.0127 7.8402 5.03912 7.7627C5.06553 7.6852 5.10453 7.6148 5.15385 7.55559C5.20317 7.49638 5.26182 7.44956 5.32638 7.41785C5.39093 7.38615 5.4601 7.37019 5.52985 7.37092C5.5996 7.37165 5.66853 7.38904 5.73261 7.42209C5.7967 7.45514 5.85466 7.50318 5.90312 7.56341L7.51259 9.49552L11.1031 5.18484C11.1519 5.12624 11.2098 5.07975 11.2736 5.04804C11.3373 5.01632 11.4056 5 11.4747 5C11.5437 5 11.612 5.01632 11.6757 5.04804C11.7395 5.07975 11.7974 5.12624 11.8462 5.18484Z" fill="black"/>
</g>
<defs>
<clipPath id="clip0_68_4320">
<rect width="16" height="16" fill="white"/>
</clipPath>
</defs>
</svg>
