<svg width="13" height="13" viewBox="0 0 13 13" fill="none" xmlns="http://www.w3.org/2000/svg">
<path fill-rule="evenodd" clip-rule="evenodd" d="M6.5002 11.3002C9.15116 11.3002 11.3002 9.15116 11.3002 6.5002C11.3002 3.84923 9.15116 1.7002 6.5002 1.7002C3.84923 1.7002 1.7002 3.84923 1.7002 6.5002C1.7002 9.15116 3.84923 11.3002 6.5002 11.3002ZM8.81413 5.41487C8.9603 5.21388 8.91587 4.93244 8.71487 4.78626C8.51388 4.64009 8.23244 4.68452 8.08626 4.88552L5.99601 7.75962L4.86839 6.632C4.69266 6.45626 4.40773 6.45626 4.232 6.632C4.05626 6.80773 4.05626 7.09266 4.232 7.26839L5.732 8.76839C5.82506 8.86145 5.95419 8.90911 6.0854 8.89882C6.2166 8.88852 6.33672 8.82131 6.41413 8.71487L8.81413 5.41487Z" fill="#E92C2C"/>
</svg>
