<svg width="19" height="19" viewBox="0 0 19 19" fill="none" xmlns="http://www.w3.org/2000/svg">
<path d="M3.16669 4.88971H15.8334M7.91669 13.2721V8.24265M11.0834 13.2721V8.24265M12.6667 16.625H6.33335C5.4589 16.625 4.75002 15.8744 4.75002 14.9485V5.72794C4.75002 5.265 5.10446 4.88971 5.54169 4.88971H13.4584C13.8956 4.88971 14.25 5.265 14.25 5.72794V14.9485C14.25 15.8744 13.5411 16.625 12.6667 16.625ZM7.91669 4.88971H11.0834C11.5206 4.88971 11.875 4.51442 11.875 4.05147V3.21324C11.875 2.75029 11.5206 2.375 11.0834 2.375H7.91669C7.47946 2.375 7.12502 2.75029 7.12502 3.21324V4.05147C7.12502 4.51442 7.47946 4.88971 7.91669 4.88971Z" stroke="#CCCCCC" stroke-width="1.5" stroke-linecap="round" stroke-linejoin="round"/>
</svg>
