<svg width="19" height="18" viewBox="0 0 19 18" fill="none" xmlns="http://www.w3.org/2000/svg">
<path d="M4.83516 2.43751L14.1652 2.43751C14.4253 2.44812 14.6807 2.50991 14.9169 2.61935C15.1531 2.72879 15.3654 2.88372 15.5416 3.07529C15.7178 3.26686 15.8546 3.4913 15.944 3.73577C16.0334 3.98024 16.0737 4.23993 16.0627 4.50001L16.0627 6.75001C16.0627 6.89919 16.0034 7.04226 15.8979 7.14775C15.7924 7.25324 15.6493 7.31251 15.5002 7.31251C15.351 7.31251 15.2079 7.25324 15.1024 7.14775C14.9969 7.04227 14.9377 6.89919 14.9377 6.75001L14.9377 4.50001C14.957 4.27731 14.8899 4.05571 14.7503 3.88116C14.6106 3.7066 14.4092 3.5925 14.1877 3.56251L4.83516 3.56251C4.61365 3.5925 4.41218 3.70661 4.27254 3.88116C4.1329 4.05571 4.0658 4.27731 4.08516 4.50001L4.08516 6.75001C4.08516 6.89919 4.0259 7.04227 3.92041 7.14775C3.81492 7.25324 3.67185 7.31251 3.52266 7.31251C3.37348 7.31251 3.2304 7.25324 3.12492 7.14775C3.01943 7.04227 2.96016 6.89919 2.96016 6.75001L2.96016 4.50001C2.9377 3.97848 3.1221 3.46918 3.47325 3.08293C3.82439 2.69667 4.31386 2.46471 4.83516 2.43751ZM6.50016 11.4375C6.57407 11.4372 6.6473 11.4516 6.71556 11.4799C6.78382 11.5082 6.84573 11.5499 6.89766 11.6025L9.50016 14.205L12.1027 11.6025C12.2093 11.5031 12.3503 11.4491 12.4961 11.4516C12.6418 11.4542 12.7808 11.5132 12.8839 11.6163C12.9869 11.7194 13.046 11.8584 13.0485 12.0041C13.0511 12.1498 12.997 12.2909 12.8977 12.3975L9.89766 15.3975C9.79219 15.5028 9.64923 15.562 9.50016 15.562C9.3511 15.562 9.20813 15.5028 9.10266 15.3975L6.10266 12.3975C5.99733 12.292 5.93816 12.1491 5.93816 12C5.93816 11.8509 5.99733 11.708 6.10266 11.6025C6.1546 11.5499 6.21651 11.5082 6.28477 11.4799C6.35303 11.4516 6.42626 11.4372 6.50016 11.4375Z" fill="#808080"/>
<path d="M9.5 6.1875C9.64858 6.18944 9.79053 6.24933 9.8956 6.3544C10.0007 6.45947 10.0606 6.60142 10.0625 6.75L10.0625 15C10.0625 15.1492 10.0032 15.2923 9.89775 15.3977C9.79226 15.5032 9.64918 15.5625 9.5 15.5625C9.35082 15.5625 9.20774 15.5032 9.10225 15.3977C8.99676 15.2923 8.9375 15.1492 8.9375 15L8.9375 6.75C8.93944 6.60142 8.99933 6.45947 9.1044 6.3544C9.20947 6.24933 9.35142 6.18944 9.5 6.1875Z" fill="#808080"/>
</svg>
