<svg width="24" height="25" viewBox="0 0 24 25" fill="none" xmlns="http://www.w3.org/2000/svg">
<path d="M11.9998 15.4221C11.8665 15.4221 11.7371 15.3971 11.6118 15.3471C11.4865 15.2971 11.3825 15.2304 11.2998 15.1471L6.6998 10.5471C6.51647 10.3637 6.4248 10.1304 6.4248 9.84707C6.4248 9.56374 6.51647 9.3304 6.6998 9.14707C6.88314 8.96374 7.11647 8.87207 7.3998 8.87207C7.68314 8.87207 7.91647 8.96374 8.0998 9.14707L11.9998 13.0471L15.8998 9.14707C16.0831 8.96374 16.3165 8.87207 16.5998 8.87207C16.8831 8.87207 17.1165 8.96374 17.2998 9.14707C17.4831 9.3304 17.5748 9.56374 17.5748 9.84707C17.5748 10.1304 17.4831 10.3637 17.2998 10.5471L12.6998 15.1471C12.5998 15.2471 12.4915 15.3181 12.3748 15.3601C12.2581 15.4021 12.1331 15.4227 11.9998 15.4221Z" fill="#666666"/>
</svg>
