<svg width="24" height="25" viewBox="0 0 24 25" fill="none" xmlns="http://www.w3.org/2000/svg">
<path d="M11.9998 8.87187C11.8665 8.87187 11.7371 8.89688 11.6118 8.94688C11.4865 8.99688 11.3825 9.06354 11.2998 9.14688L6.6998 13.7469C6.51647 13.9302 6.4248 14.1635 6.4248 14.4469C6.4248 14.7302 6.51647 14.9635 6.6998 15.1469C6.88314 15.3302 7.11647 15.4219 7.3998 15.4219C7.68314 15.4219 7.91647 15.3302 8.0998 15.1469L11.9998 11.2469L15.8998 15.1469C16.0831 15.3302 16.3165 15.4219 16.5998 15.4219C16.8831 15.4219 17.1165 15.3302 17.2998 15.1469C17.4831 14.9635 17.5748 14.7302 17.5748 14.4469C17.5748 14.1635 17.4831 13.9302 17.2998 13.7469L12.6998 9.14688C12.5998 9.04688 12.4915 8.97587 12.3748 8.93388C12.2581 8.89188 12.1331 8.87121 11.9998 8.87187Z" fill="#666666"/>
</svg>
