<svg width="72" height="56" viewBox="0 0 72 56" fill="none" xmlns="http://www.w3.org/2000/svg">
<g id="_&#235;&#160;&#136;&#236;&#157;&#180;&#236;&#150;&#180;_1" clip-path="url(#clip0_2771_11948)">
<g id="Group">
<path id="Vector" d="M6.01519 48.2747C6.43594 48.2747 6.83358 48.3163 7.21272 48.4042C7.59186 48.492 7.93401 48.6307 8.24379 48.8296C8.55358 49.0284 8.82637 49.2873 9.0668 49.6063C9.30723 49.93 9.50605 50.3276 9.65863 50.7992C9.94068 50.7484 10.084 50.5958 10.084 50.3507C10.084 50.1519 10.0147 49.9023 9.87132 49.6017C9.72799 49.3012 9.50143 49.0099 9.18702 48.7278C8.87261 48.4458 8.46111 48.2007 7.9525 48.0019C7.4439 47.7985 6.81971 47.7014 6.09379 47.7014C5.68229 47.7014 5.32627 47.7338 5.03035 47.8031C4.73444 47.8725 4.48939 47.9464 4.29057 48.0204C3.99003 47.8678 3.72186 47.6644 3.48143 47.4193C3.241 47.1743 3.03756 46.8969 2.87111 46.5871C2.70465 46.2773 2.57519 45.9444 2.48272 45.5838C2.39025 45.2231 2.34863 44.8532 2.34863 44.4741C2.34863 43.4199 2.57519 42.5137 3.03293 41.7554C3.48605 41.0017 4.0825 40.3821 4.81767 39.9059C5.55283 39.4297 6.37584 39.0783 7.29594 38.8563C8.21605 38.6344 9.13616 38.5234 10.0655 38.5234C10.8978 38.5234 11.6561 38.5743 12.3311 38.676C13.0108 38.7777 13.6165 38.9164 14.1482 39.0829C14.6799 39.2494 15.1469 39.4389 15.5445 39.6516C15.9422 39.8643 16.2797 40.0724 16.5571 40.2897C16.6496 40.5625 16.7236 40.863 16.7744 41.1913C16.8253 41.5196 16.853 41.8571 16.853 42.2085C16.853 42.4397 16.8345 42.6847 16.7929 42.9344C16.7559 43.1887 16.6958 43.4338 16.6172 43.6742C16.5386 43.9146 16.4415 44.1412 16.3213 44.3585C16.2011 44.5712 16.0578 44.7561 15.8959 44.9133C15.7572 44.8209 15.5584 44.7145 15.2902 44.5989C15.0221 44.4833 14.7215 44.377 14.384 44.2753C14.0465 44.1735 13.6766 44.0949 13.2836 44.0256C12.8906 43.9562 12.4929 43.9239 12.0999 43.9239C11.559 43.9239 11.1844 43.9609 10.9718 44.0395C10.7591 44.1181 10.6573 44.2383 10.6573 44.4001C10.6573 44.488 10.6712 44.5573 10.6943 44.6174C10.8654 44.5758 11.055 44.5434 11.263 44.5296C11.4711 44.5111 11.6653 44.5018 11.8549 44.5018C12.5947 44.5018 13.3206 44.5943 14.0326 44.7792C14.7447 44.9642 15.3827 45.2694 15.9468 45.6947C16.5109 46.1201 16.964 46.6796 17.3062 47.3731C17.6483 48.0667 17.8194 48.922 17.8194 49.9346C17.8194 50.7345 17.6483 51.4882 17.3062 52.2002C16.964 52.9123 16.46 53.5411 15.7942 54.082C15.1284 54.623 14.3054 55.053 13.3206 55.372C12.3357 55.6911 11.2029 55.8483 9.91293 55.8483C9.25175 55.8483 8.63218 55.8252 8.05885 55.7789C7.48551 55.7327 6.9353 55.6541 6.4082 55.5477C5.88573 55.4414 5.38175 55.2981 4.90089 55.1224C4.42003 54.9467 3.94379 54.734 3.47218 54.4843C3.19014 54.0728 2.95896 53.6335 2.77863 53.1712C2.59831 52.7088 2.51046 52.1817 2.51046 51.5853C2.51046 51.1229 2.59831 50.6883 2.77401 50.286C2.94971 49.8838 3.19476 49.5324 3.49992 49.2364C3.80971 48.9405 4.1796 48.7047 4.6096 48.5337C5.0396 48.3626 5.51121 48.2747 6.02444 48.2747H6.01519Z" fill="#29CBFF"/>
<path id="Vector_2" d="M26.6456 55.8994C25.9243 55.8994 25.2123 55.8254 24.5095 55.6729C23.8067 55.5203 23.1409 55.2937 22.5121 54.9839C21.8832 54.6741 21.3099 54.2858 20.7782 53.8095C20.2511 53.3379 19.7933 52.7784 19.405 52.1358C19.0166 51.4931 18.716 50.7579 18.5033 49.9349C18.2907 49.1119 18.1797 48.1918 18.1797 47.1792C18.1797 45.6765 18.4109 44.3773 18.8732 43.2815C19.3356 42.1857 19.9552 41.2794 20.7273 40.5627C21.4995 39.8461 22.3918 39.3144 23.3998 38.9722C24.4078 38.6301 25.4619 38.459 26.5624 38.459C27.8662 38.459 29.0407 38.6717 30.0764 39.097C31.1167 39.5224 31.9952 40.1189 32.7165 40.8818C33.4378 41.6447 33.9926 42.5648 34.3764 43.6375C34.7647 44.7102 34.9543 45.8892 34.9543 47.1792C34.9543 48.7096 34.737 50.0227 34.3024 51.1186C33.8678 52.219 33.2759 53.1206 32.5269 53.828C31.7779 54.5354 30.8947 55.0579 29.8868 55.3908C28.8788 55.7237 27.7923 55.8948 26.6364 55.8948L26.6456 55.8994ZM27.1588 46.6012C27.1588 46.1897 27.1496 45.8337 27.1311 45.5378C27.1126 45.2419 27.0848 44.9968 27.0432 44.798C27.0016 44.6177 26.9415 44.4975 26.8675 44.4374C26.7936 44.3773 26.7103 44.3495 26.6179 44.3495C26.5254 44.3495 26.4514 44.3634 26.4005 44.3958C26.3497 44.4281 26.3081 44.4559 26.2711 44.479C26.2803 44.6316 26.2942 44.7749 26.3081 44.909C26.3219 45.0431 26.3404 45.191 26.3543 45.3575C26.3682 45.5239 26.3774 45.7181 26.3867 45.9354C26.3959 46.1527 26.4005 46.4209 26.4005 46.74V47.5768C26.4005 47.8959 26.4005 48.164 26.3867 48.3814C26.3774 48.5987 26.3682 48.7929 26.3543 48.9593C26.3404 49.1258 26.3266 49.2783 26.3081 49.4078C26.2896 49.5373 26.2757 49.6852 26.2711 49.8378C26.3035 49.8655 26.3497 49.8933 26.4005 49.921C26.4514 49.9534 26.5254 49.9673 26.6179 49.9673C26.7103 49.9673 26.7936 49.9349 26.8675 49.8794C26.9415 49.8193 26.997 49.6991 27.0432 49.5188C27.0848 49.32 27.1172 49.0749 27.1311 48.779C27.1496 48.4831 27.1588 48.127 27.1588 47.7155V46.5966V46.6012Z" fill="#29CBFF"/>
<path id="Vector_3" d="M38.6487 55.5027C37.7194 55.5027 36.9935 55.2577 36.4571 54.763C35.9254 54.2682 35.6572 53.5007 35.6572 52.4511V40.8596C35.6572 40.5175 35.8422 40.2031 36.2167 39.921C36.5912 39.639 37.0767 39.3939 37.6778 39.1859C38.2788 38.9778 38.9585 38.8206 39.7122 38.705C40.4658 38.5894 41.2334 38.5293 42.0055 38.5293C43.3695 38.5293 44.6179 38.6957 45.746 39.0333C46.8742 39.3662 47.8452 39.8887 48.6636 40.5914C49.4773 41.2942 50.1108 42.1912 50.5639 43.2824C51.017 44.3736 51.2389 45.6775 51.2389 47.1987C51.2389 48.5303 51.0216 49.7093 50.587 50.7404C50.1524 51.7714 49.5328 52.6407 48.7191 53.3481C47.9099 54.0555 46.9251 54.5919 45.7784 54.9571C44.6317 55.3224 43.3371 55.5027 41.9038 55.5027H38.6441H38.6487ZM43.4527 46.6022C43.4527 46.1907 43.4435 45.8347 43.425 45.5388C43.4065 45.2428 43.3787 44.9978 43.3371 44.799C43.2955 44.6187 43.2354 44.4984 43.1614 44.4383C43.0874 44.3782 43.0042 44.3505 42.9117 44.3505C42.8193 44.3505 42.7453 44.3643 42.6944 44.3967C42.6436 44.4291 42.602 44.4568 42.565 44.4799C42.5742 44.6325 42.5881 44.7759 42.602 44.9099C42.6158 45.044 42.6343 45.192 42.6482 45.3584C42.6621 45.5249 42.6713 45.7191 42.6806 45.9364C42.6898 46.1537 42.6944 46.4219 42.6944 46.7409V47.5778C42.6944 47.8968 42.6944 48.165 42.6806 48.3823C42.6713 48.5996 42.6621 48.7938 42.6482 48.9603C42.6343 49.1267 42.6205 49.2793 42.602 49.4088C42.5835 49.5382 42.5696 49.6862 42.565 49.8388C42.5973 49.8665 42.6436 49.8942 42.6944 49.922C42.7453 49.9544 42.8193 49.9682 42.9117 49.9682C43.0042 49.9682 43.0874 49.9359 43.1614 49.8804C43.2354 49.8203 43.2909 49.7 43.3371 49.5197C43.3787 49.3209 43.4111 49.0759 43.425 48.7799C43.4435 48.484 43.4527 48.128 43.4527 47.7165V46.5976V46.6022Z" fill="#29CBFF"/>
<path id="Vector_4" d="M53.8705 40.0364C54.2034 39.8238 54.5825 39.6249 55.0033 39.4492C55.424 39.2735 55.8679 39.1256 56.3349 39.0054C56.8019 38.8852 57.2874 38.7927 57.7914 38.728C58.2953 38.6632 58.7993 38.6309 59.3033 38.6309C59.9737 38.6309 60.6349 38.691 61.2915 38.8112C61.948 38.9314 62.5491 39.121 63.0901 39.3799C63.631 39.6388 64.0934 39.9717 64.4818 40.3786C64.8702 40.7855 65.1291 41.2756 65.2678 41.8397L68.2038 53.986C67.8108 54.4946 67.256 54.9107 66.5439 55.2344C65.8319 55.5627 64.9303 55.7245 63.8391 55.7245C63.3582 55.7245 62.9051 55.6829 62.4844 55.5951C62.0636 55.5072 61.6937 55.3824 61.3701 55.2159C61.0464 55.0495 60.7829 54.8368 60.5702 54.5825C60.3575 54.3282 60.2234 54.0323 60.1633 53.6855L59.8812 52.1134C60.1494 52.1042 60.413 52.0718 60.6719 52.0163C60.9354 51.9609 61.1712 51.8915 61.3793 51.8083C61.592 51.7251 61.7631 51.6326 61.8925 51.5309C62.0266 51.4291 62.0914 51.3228 62.0914 51.2211C62.0914 51.0824 62.0359 50.9714 61.9249 50.8882C61.7723 50.9991 61.592 51.1009 61.3839 51.1887C61.1759 51.2766 60.9632 51.3552 60.732 51.4153C60.5054 51.4754 60.2789 51.5216 60.0477 51.5494C59.8211 51.5817 59.6085 51.5956 59.4096 51.5956C59.0397 51.5956 58.7115 51.5725 58.4248 51.5262C58.1381 51.48 57.8838 51.4199 57.6711 51.3505C57.4585 51.2812 57.2735 51.2072 57.1163 51.124C56.9637 51.0408 56.8343 50.9621 56.7279 50.8835C56.6955 50.9252 56.6632 50.976 56.6401 51.0315C56.6123 51.087 56.6031 51.1517 56.6031 51.2164C56.6031 51.3459 56.6678 51.4615 56.8019 51.5725C56.936 51.6788 57.1117 51.7759 57.3382 51.8545C57.5648 51.9331 57.8145 52.0025 58.1058 52.0533C58.3924 52.1042 58.6976 52.1412 59.012 52.1551C59.0629 52.7561 59.123 53.237 59.1877 53.593C59.2524 53.949 59.3125 54.1756 59.3726 54.2681C59.294 54.416 59.1415 54.5686 58.9149 54.7397C58.6883 54.9061 58.4017 55.0633 58.0642 55.2113C57.7266 55.3592 57.3382 55.4795 56.9036 55.5719C56.469 55.6644 56.0066 55.7153 55.5211 55.7153C54.9108 55.7153 54.3375 55.6459 53.7965 55.5072C53.2555 55.3685 52.7839 55.1789 52.3817 54.9339C51.9794 54.6888 51.6558 54.3929 51.4153 54.0461C51.1749 53.6994 51.0547 53.311 51.0547 52.881C51.0547 52.7885 51.0547 52.6914 51.0686 52.5897C51.0778 52.4926 51.0963 52.3909 51.1194 52.2891L53.8612 40.0272L53.8705 40.0364ZM59.9229 46.6668C59.8304 46.1535 59.7518 45.7374 59.6963 45.4323C59.6408 45.1225 59.5853 44.8913 59.5298 44.7295C59.4744 44.5676 59.4143 44.4659 59.3495 44.4197C59.2848 44.3734 59.2062 44.3503 59.1091 44.3503C59.049 44.3503 58.9935 44.3596 58.9426 44.3781C58.8918 44.3966 58.8455 44.4104 58.7993 44.4289L59.2894 47.032C59.3218 47.0644 59.3726 47.0921 59.4374 47.1106C59.5021 47.1291 59.5576 47.1384 59.6131 47.1384C59.6917 47.1384 59.761 47.1291 59.8304 47.106C59.8997 47.0829 59.9506 47.0644 59.983 47.0459L59.9182 46.6714L59.9229 46.6668Z" fill="#29CBFF"/>
</g>
<g id="Group_2">
<path id="Vector_5" d="M70.8761 30.7149L56.2607 17.9305C57.3242 16.6914 58.5633 14.939 59.4695 12.6226C61.6796 7.00022 60.459 1.89108 59.8995 0C58.2258 2.03903 55.9232 4.44333 52.8623 6.73204C50.9343 8.17462 49.0756 9.29817 47.4064 10.1767C47.4295 10.1998 47.4526 10.2183 47.4758 10.2414L39.5647 3.31978C37.5442 1.55355 34.3816 1.55355 32.361 3.31978L24.5286 10.172C22.8594 9.29817 21.0007 8.17462 19.0726 6.73204C16.0118 4.43871 13.7092 2.03903 12.0354 0C11.476 1.89108 10.2553 6.99559 12.4654 12.6226C13.3717 14.9298 14.6062 16.6868 15.6696 17.9213L1.04039 30.7149C-0.226493 31.8246 -0.355955 33.7527 0.753722 35.0196C1.8634 36.2864 3.79146 36.4159 5.05835 35.3062L35.9582 8.27634L66.8581 35.3062C67.4361 35.8148 68.1528 36.0599 68.8648 36.0599C69.7155 36.0599 70.5571 35.7085 71.1628 35.0196C72.2724 33.7527 72.143 31.8246 70.8761 30.7149Z" fill="#29CBFF"/>
<path id="Vector_6" d="M34.6176 21.7812H30.5071C30.1445 21.7812 29.8506 22.0752 29.8506 22.4378V26.5482C29.8506 26.9108 30.1445 27.2048 30.5071 27.2048H34.6176C34.9802 27.2048 35.2741 26.9108 35.2741 26.5482V22.4378C35.2741 22.0752 34.9802 21.7812 34.6176 21.7812Z" fill="#29CBFF"/>
<path id="Vector_7" d="M41.4144 21.7812H37.304C36.9414 21.7812 36.6475 22.0752 36.6475 22.4378V26.5482C36.6475 26.9108 36.9414 27.2048 37.304 27.2048H41.4144C41.7771 27.2048 42.071 26.9108 42.071 26.5482V22.4378C42.071 22.0752 41.7771 21.7812 41.4144 21.7812Z" fill="#29CBFF"/>
<path id="Vector_8" d="M41.4144 28.5781H37.304C36.9414 28.5781 36.6475 28.8721 36.6475 29.2347V33.3451C36.6475 33.7077 36.9414 34.0017 37.304 34.0017H41.4144C41.7771 34.0017 42.071 33.7077 42.071 33.3451V29.2347C42.071 28.8721 41.7771 28.5781 41.4144 28.5781Z" fill="#29CBFF"/>
<path id="Vector_9" d="M34.6176 28.5781H30.5071C30.1445 28.5781 29.8506 28.8721 29.8506 29.2347V33.3451C29.8506 33.7077 30.1445 34.0017 30.5071 34.0017H34.6176C34.9802 34.0017 35.2741 33.7077 35.2741 33.3451V29.2347C35.2741 28.8721 34.9802 28.5781 34.6176 28.5781Z" fill="#29CBFF"/>
</g>
</g>
<defs>
<clipPath id="clip0_2771_11948">
<rect width="71.921" height="55.9" fill="white"/>
</clipPath>
</defs>
</svg>
