<svg width="197" height="22" viewBox="0 0 197 22" fill="none" xmlns="http://www.w3.org/2000/svg">
<path d="M135.22 18C135.22 20.3 132.9 21.9 129.6 21.9C126.3 21.9 123.98 20.3 123.98 18C123.98 15.66 126.3 14.04 129.6 14.04C132.9 14.04 135.22 15.66 135.22 18ZM120.64 11.78C120.64 11.2 121 10.64 121.72 10.64H137.48C138.2 10.64 138.56 11.2 138.56 11.78C138.56 12.34 138.2 12.92 137.48 12.92H121.72C121 12.92 120.64 12.34 120.64 11.78ZM123.1 3.98C123.1 3.2 123.74 2.72 124.6 2.72H134.8C135.52 2.72 135.92 3.18 135.92 3.86C135.92 4.52 135.54 4.96 134.8 4.96H125.74V6.6C125.74 6.74 125.8 6.8 125.9 6.82C126.84 7.06 128.12 7.14 129.6 7.14C131.2 7.14 133.1 6.98 134.78 6.54C134.88 6.52 135.08 6.48 135.18 6.48C135.82 6.48 136.38 6.9 136.38 7.58C136.38 8.12 135.98 8.54 135.42 8.7C133.62 9.18 131.44 9.38 129.6 9.38C127.76 9.38 125.58 9.2 124.48 8.84C123.44 8.5 123.1 7.94 123.1 6.9V3.98ZM126.66 18C126.66 19.02 127.82 19.66 129.62 19.66C131.38 19.66 132.54 19.02 132.54 18C132.54 16.96 131.36 16.28 129.62 16.28C127.84 16.28 126.66 16.96 126.66 18ZM153.639 3.18C153.639 2.32 154.419 1.96 154.979 1.96C155.539 1.96 156.319 2.32 156.319 3.18V20.64C156.319 21.5 155.539 21.86 154.979 21.86C154.419 21.86 153.639 21.5 153.639 20.64V3.18ZM140.699 4.68C140.699 4 141.099 3.52 141.799 3.52H149.679C150.359 3.52 150.979 3.96 150.979 4.7C150.979 5.78 150.819 6.8 150.539 7.88C149.679 11.34 147.339 14.26 142.819 16.44C142.599 16.54 142.299 16.62 142.119 16.62C141.399 16.62 140.799 16.02 140.799 15.34C140.799 14.88 141.039 14.54 141.419 14.36C145.259 12.58 147.279 10.06 147.999 7.24C148.099 6.78 148.199 6.3 148.239 5.84H141.799C141.099 5.84 140.699 5.36 140.699 4.68ZM167.998 19.58C165.098 19.58 162.378 19.28 159.998 18.62C159.318 18.44 159.038 17.96 159.038 17.48C159.038 16.9 159.478 16.32 160.178 16.32C160.278 16.32 160.418 16.34 160.538 16.38C162.438 16.88 164.498 17.16 166.658 17.24V13.58C166.658 12.72 167.238 12.36 167.998 12.36C168.758 12.36 169.338 12.72 169.338 13.58V17.24C171.518 17.16 173.538 16.88 175.458 16.38C175.578 16.34 175.718 16.34 175.818 16.34C176.518 16.34 176.958 16.9 176.958 17.48C176.958 17.96 176.678 18.44 175.998 18.62C173.618 19.28 170.898 19.58 167.998 19.58ZM160.918 11.92C160.918 11.32 161.298 10.9 161.878 10.68C163.838 9.9 165.138 8.72 166.018 7.26C166.558 6.36 166.658 5.66 166.658 4.96V4.32C166.658 3.46 167.438 3.12 167.998 3.12C168.558 3.12 169.338 3.46 169.338 4.32V4.96C169.338 5.66 169.438 6.36 169.978 7.26C170.858 8.72 172.158 9.9 174.118 10.68C174.698 10.9 175.078 11.32 175.078 11.92C175.078 12.62 174.598 12.98 173.958 13C173.618 13.02 173.298 12.98 173.138 12.92C170.838 12.14 169.418 10.76 167.998 8.8C166.578 10.76 165.098 12.14 162.798 12.92C162.638 12.98 162.378 13.02 162.038 13C161.398 12.96 160.918 12.56 160.918 11.92ZM180.518 16C179.438 15.68 179.098 15 179.098 14.08V4.58C179.098 3.8 179.738 3.32 180.598 3.32H187.538C188.278 3.32 188.658 3.8 188.658 4.46C188.658 5.14 188.258 5.62 187.538 5.62H181.778V13.76C181.778 13.86 181.838 13.94 181.938 13.96C182.498 14.12 183.518 14.18 184.218 14.18C185.038 14.18 186.458 14.02 187.858 13.66C187.958 13.62 188.158 13.6 188.258 13.6C188.878 13.6 189.458 14.04 189.458 14.72C189.458 15.26 189.058 15.7 188.498 15.86C186.978 16.3 185.258 16.46 184.218 16.46C183.198 16.46 181.718 16.38 180.518 16ZM191.118 3.18C191.118 2.32 191.898 1.96 192.458 1.96C193.018 1.96 193.798 2.32 193.798 3.18V8.32H195.458C196.178 8.32 196.578 8.8 196.578 9.48C196.578 10.16 196.178 10.64 195.458 10.64H193.798V20.64C193.798 21.5 193.018 21.86 192.458 21.86C191.898 21.86 191.118 21.5 191.118 20.64V3.18Z" fill="#29CDFF"/>
<g clip-path="url(#clip0_2576_9798)">
<path d="M96.0072 18.4081C96.1476 18.4081 96.2803 18.4223 96.4068 18.4521C96.5334 18.482 96.6475 18.5292 96.7509 18.5967C96.8543 18.6643 96.9453 18.7523 97.0255 18.8607C97.1058 18.9708 97.1721 19.1059 97.223 19.2662C97.3172 19.2489 97.365 19.1971 97.365 19.1138C97.365 19.0462 97.3418 18.9613 97.294 18.8592C97.2462 18.757 97.1706 18.658 97.0657 18.5622C96.9607 18.4663 96.8234 18.383 96.6537 18.3154C96.484 18.2478 96.2757 18.2133 96.0335 18.2133C95.8961 18.2133 95.7773 18.2243 95.6786 18.2478C95.5798 18.2714 95.4981 18.2966 95.4317 18.3217C95.3314 18.2698 95.2419 18.2007 95.1617 18.1174C95.0815 18.0341 95.0136 17.9398 94.958 17.8345C94.9025 17.7292 94.8593 17.6161 94.8284 17.4935C94.7976 17.3709 94.7837 17.2452 94.7837 17.1163C94.7837 16.758 94.8593 16.45 95.012 16.1923C95.1632 15.9361 95.3623 15.7255 95.6076 15.5636C95.8529 15.4018 96.1276 15.2823 96.4346 15.2069C96.7416 15.1315 97.0487 15.0938 97.3588 15.0938C97.6365 15.0938 97.8896 15.111 98.1148 15.1456C98.3401 15.1802 98.5438 15.2273 98.7212 15.2839C98.8986 15.3405 99.0545 15.4049 99.1872 15.4772C99.3199 15.5495 99.4325 15.6202 99.5251 15.6941C99.5559 15.7868 99.5806 15.889 99.5976 16.0005C99.6145 16.1121 99.6238 16.2268 99.6238 16.3463C99.6238 16.4249 99.6176 16.5081 99.6037 16.593C99.5914 16.6794 99.5713 16.7627 99.5451 16.8445C99.5189 16.9262 99.4865 17.0032 99.4464 17.077C99.4063 17.1493 99.3584 17.2122 99.3044 17.2656C99.2581 17.2342 99.1918 17.1981 99.1023 17.1588C99.0128 17.1195 98.9125 17.0833 98.7999 17.0488C98.6873 17.0142 98.5638 16.9875 98.4327 16.9639C98.3015 16.9403 98.1688 16.9293 98.0377 16.9293C97.8572 16.9293 97.7322 16.9419 97.6612 16.9686C97.5902 16.9953 97.5563 17.0362 97.5563 17.0912C97.5563 17.121 97.5609 17.1446 97.5686 17.165C97.6257 17.1509 97.689 17.1399 97.7584 17.1352C97.8279 17.1289 97.8927 17.1258 97.9559 17.1258C98.2028 17.1258 98.445 17.1572 98.6826 17.2201C98.9202 17.2829 99.1332 17.3866 99.3214 17.5312C99.5096 17.6758 99.6608 17.866 99.775 18.1017C99.8892 18.3374 99.9463 18.6282 99.9463 18.9723C99.9463 19.2442 99.8892 19.5004 99.775 19.7424C99.6608 19.9844 99.4927 20.1981 99.2705 20.382C99.0483 20.5659 98.7737 20.712 98.445 20.8205C98.1164 20.9289 97.7384 20.9823 97.3079 20.9823C97.0873 20.9823 96.8805 20.9745 96.6892 20.9588C96.4979 20.943 96.3143 20.9163 96.1384 20.8802C95.964 20.844 95.7958 20.7953 95.6354 20.7356C95.4749 20.6759 95.316 20.6036 95.1586 20.5187C95.0645 20.3789 94.9874 20.2296 94.9272 20.0724C94.867 19.9153 94.8377 19.7361 94.8377 19.5334C94.8377 19.3762 94.867 19.2285 94.9256 19.0918C94.9843 18.955 95.066 18.8356 95.1679 18.735C95.2713 18.6344 95.3947 18.5543 95.5382 18.4961C95.6817 18.438 95.839 18.4081 96.0103 18.4081H96.0072Z" fill="#29CDFF"/>
<path d="M102.891 21.0001C102.651 21.0001 102.413 20.975 102.179 20.9231C101.944 20.8713 101.722 20.7943 101.512 20.689C101.302 20.5837 101.111 20.4517 100.934 20.2898C100.758 20.1295 100.605 19.9393 100.475 19.7209C100.346 19.5025 100.245 19.2526 100.174 18.9728C100.103 18.6931 100.066 18.3804 100.066 18.0362C100.066 17.5254 100.144 17.0838 100.298 16.7114C100.452 16.3389 100.659 16.0309 100.917 15.7873C101.174 15.5437 101.472 15.363 101.808 15.2467C102.145 15.1304 102.496 15.0723 102.864 15.0723C103.299 15.0723 103.691 15.1446 104.036 15.2891C104.383 15.4337 104.677 15.6365 104.917 15.8958C105.158 16.1551 105.343 16.4678 105.471 16.8324C105.601 17.197 105.664 17.5977 105.664 18.0362C105.664 18.5564 105.592 19.0027 105.447 19.3752C105.302 19.7492 105.104 20.0556 104.854 20.2961C104.604 20.5365 104.309 20.7141 103.973 20.8273C103.637 20.9404 103.274 20.9986 102.888 20.9986L102.891 21.0001ZM103.063 17.8398C103.063 17.6999 103.06 17.5789 103.053 17.4783C103.047 17.3777 103.038 17.2944 103.024 17.2269C103.01 17.1656 102.99 17.1247 102.966 17.1043C102.941 17.0838 102.913 17.0744 102.882 17.0744C102.851 17.0744 102.827 17.0791 102.81 17.0901C102.793 17.1011 102.779 17.1106 102.767 17.1184C102.77 17.1703 102.774 17.219 102.779 17.2646C102.783 17.3101 102.79 17.3604 102.794 17.417C102.799 17.4736 102.802 17.5396 102.805 17.6135C102.808 17.6873 102.81 17.7785 102.81 17.8869V18.1714C102.81 18.2798 102.81 18.3709 102.805 18.4448C102.802 18.5187 102.799 18.5847 102.794 18.6412C102.79 18.6978 102.785 18.7497 102.779 18.7937C102.773 18.8377 102.768 18.888 102.767 18.9398C102.777 18.9493 102.793 18.9587 102.81 18.9681C102.827 18.9791 102.851 18.9838 102.882 18.9838C102.913 18.9838 102.941 18.9728 102.966 18.954C102.99 18.9336 103.009 18.8927 103.024 18.8314C103.038 18.7638 103.049 18.6805 103.053 18.58C103.06 18.4794 103.063 18.3584 103.063 18.2185V17.8382V17.8398Z" fill="#29CDFF"/>
<path d="M106.897 20.8649C106.587 20.8649 106.345 20.7816 106.166 20.6134C105.988 20.4452 105.899 20.1844 105.899 19.8276V15.8878C105.899 15.7715 105.961 15.6646 106.086 15.5687C106.211 15.4729 106.373 15.3896 106.573 15.3189C106.774 15.2481 107.001 15.1947 107.252 15.1554C107.504 15.1161 107.76 15.0957 108.017 15.0957C108.473 15.0957 108.889 15.1523 109.266 15.267C109.642 15.3802 109.966 15.5577 110.239 15.7966C110.511 16.0355 110.722 16.3404 110.873 16.7113C111.024 17.0821 111.099 17.5253 111.099 18.0424C111.099 18.495 111.026 18.8957 110.881 19.2462C110.736 19.5966 110.529 19.8921 110.258 20.1325C109.986 20.373 109.659 20.5553 109.276 20.6794C108.894 20.8036 108.462 20.8649 107.983 20.8649H106.896H106.897ZM108.5 17.8396C108.5 17.6998 108.497 17.5787 108.491 17.4782C108.485 17.3776 108.476 17.2943 108.462 17.2267C108.448 17.1654 108.428 17.1246 108.403 17.1041C108.378 17.0837 108.351 17.0743 108.32 17.0743C108.289 17.0743 108.264 17.079 108.247 17.09C108.23 17.101 108.216 17.1104 108.204 17.1183C108.207 17.1701 108.212 17.2189 108.216 17.2644C108.221 17.31 108.227 17.3603 108.232 17.4169C108.236 17.4735 108.24 17.5395 108.243 17.6133C108.246 17.6872 108.247 17.7783 108.247 17.8868V18.1712C108.247 18.2797 108.247 18.3708 108.243 18.4447C108.24 18.5185 108.236 18.5845 108.232 18.6411C108.227 18.6977 108.223 18.7495 108.216 18.7936C108.21 18.8376 108.206 18.8878 108.204 18.9397C108.215 18.9491 108.23 18.9586 108.247 18.968C108.264 18.979 108.289 18.9837 108.32 18.9837C108.351 18.9837 108.378 18.9727 108.403 18.9538C108.428 18.9334 108.446 18.8926 108.462 18.8313C108.476 18.7637 108.486 18.6804 108.491 18.5798C108.497 18.4792 108.5 18.3582 108.5 18.2184V17.8381V17.8396Z" fill="#29CDFF"/>
<path d="M111.976 15.6086C112.087 15.5363 112.214 15.4687 112.354 15.409C112.495 15.3493 112.643 15.299 112.799 15.2582C112.954 15.2173 113.116 15.1859 113.285 15.1639C113.453 15.1419 113.621 15.1309 113.789 15.1309C114.013 15.1309 114.234 15.1513 114.453 15.1921C114.672 15.233 114.872 15.2974 115.053 15.3854C115.233 15.4735 115.388 15.5866 115.517 15.7249C115.647 15.8632 115.733 16.0298 115.78 16.2215L116.759 20.35C116.628 20.5228 116.443 20.6643 116.205 20.7743C115.968 20.8859 115.667 20.9409 115.303 20.9409C115.142 20.9409 114.991 20.9267 114.851 20.8969C114.71 20.867 114.587 20.8246 114.479 20.768C114.371 20.7114 114.283 20.6391 114.212 20.5527C114.141 20.4663 114.096 20.3657 114.076 20.2478L113.982 19.7135C114.072 19.7103 114.159 19.6993 114.246 19.6805C114.334 19.6616 114.413 19.6381 114.482 19.6098C114.553 19.5815 114.61 19.55 114.653 19.5155C114.698 19.4809 114.72 19.4448 114.72 19.4102C114.72 19.363 114.701 19.3253 114.664 19.297C114.613 19.3347 114.553 19.3693 114.483 19.3992C114.414 19.429 114.343 19.4558 114.266 19.4762C114.19 19.4966 114.115 19.5123 114.038 19.5218C113.962 19.5328 113.891 19.5375 113.825 19.5375C113.701 19.5375 113.592 19.5296 113.496 19.5139C113.4 19.4982 113.316 19.4778 113.245 19.4542C113.174 19.4306 113.112 19.4055 113.059 19.3772C113.008 19.3489 112.965 19.3222 112.93 19.2955C112.919 19.3096 112.908 19.3269 112.9 19.3457C112.891 19.3646 112.888 19.3866 112.888 19.4086C112.888 19.4526 112.91 19.4919 112.954 19.5296C112.999 19.5658 113.058 19.5988 113.133 19.6255C113.209 19.6522 113.292 19.6758 113.39 19.6931C113.485 19.7103 113.587 19.7229 113.692 19.7276C113.709 19.9319 113.729 20.0954 113.751 20.2164C113.772 20.3374 113.792 20.4144 113.812 20.4458C113.786 20.4961 113.735 20.548 113.66 20.6061C113.584 20.6627 113.488 20.7161 113.376 20.7664C113.263 20.8167 113.133 20.8576 112.988 20.889C112.843 20.9204 112.689 20.9377 112.527 20.9377C112.323 20.9377 112.132 20.9142 111.952 20.867C111.771 20.8199 111.614 20.7554 111.479 20.6721C111.345 20.5888 111.237 20.4883 111.157 20.3704C111.077 20.2525 111.037 20.1205 111.037 19.9744C111.037 19.9429 111.037 19.9099 111.041 19.8754C111.044 19.8424 111.051 19.8078 111.058 19.7732L111.973 15.6055L111.976 15.6086ZM113.996 17.8622C113.965 17.6878 113.939 17.5463 113.92 17.4426C113.902 17.3373 113.883 17.2587 113.865 17.2037C113.846 17.1487 113.826 17.1142 113.805 17.0984C113.783 17.0827 113.757 17.0749 113.724 17.0749C113.704 17.0749 113.686 17.078 113.669 17.0843C113.652 17.0906 113.636 17.0953 113.621 17.1016L113.785 17.9864C113.795 17.9974 113.812 18.0068 113.834 18.0131C113.856 18.0194 113.874 18.0225 113.893 18.0225C113.919 18.0225 113.942 18.0194 113.965 18.0115C113.988 18.0036 114.005 17.9974 114.016 17.9911L113.994 17.8638L113.996 17.8622Z" fill="#29CDFF"/>
<path d="M117.651 12.4398L112.774 8.09446C113.129 7.67328 113.542 7.07767 113.845 6.29032C114.582 4.37932 114.175 2.64276 113.988 2C113.43 2.69305 112.661 3.51026 111.64 4.28817C110.997 4.77849 110.376 5.16038 109.819 5.45897C109.827 5.46683 109.835 5.47312 109.842 5.48098L107.203 3.12837C106.528 2.52804 105.473 2.52804 104.799 3.12837L102.185 5.4574C101.628 5.16038 101.008 4.77849 100.364 4.28817C99.343 3.50868 98.5746 2.69305 98.0161 2C97.8294 2.64276 97.422 4.37775 98.1596 6.29032C98.462 7.07452 98.8739 7.67171 99.2288 8.09131L94.347 12.4398C93.9243 12.817 93.8811 13.4723 94.2514 13.9029C94.6217 14.3335 95.265 14.3775 95.6878 14.0003L105.999 4.81307L116.31 14.0003C116.503 14.1732 116.742 14.2565 116.98 14.2565C117.264 14.2565 117.545 14.1371 117.747 13.9029C118.117 13.4723 118.074 12.817 117.651 12.4398Z" fill="#29CDFF"/>
<path d="M105.552 9.4043H104.18C104.059 9.4043 103.961 9.50421 103.961 9.62746V11.0246C103.961 11.1478 104.059 11.2477 104.18 11.2477H105.552C105.673 11.2477 105.771 11.1478 105.771 11.0246V9.62746C105.771 9.50421 105.673 9.4043 105.552 9.4043Z" fill="#29CDFF"/>
<path d="M107.82 9.4043H106.448C106.327 9.4043 106.229 9.50421 106.229 9.62746V11.0246C106.229 11.1478 106.327 11.2477 106.448 11.2477H107.82C107.941 11.2477 108.039 11.1478 108.039 11.0246V9.62746C108.039 9.50421 107.941 9.4043 107.82 9.4043Z" fill="#29CDFF"/>
<path d="M107.82 11.7129H106.448C106.327 11.7129 106.229 11.8128 106.229 11.936V13.3332C106.229 13.4564 106.327 13.5563 106.448 13.5563H107.82C107.941 13.5563 108.039 13.4564 108.039 13.3332V11.936C108.039 11.8128 107.941 11.7129 107.82 11.7129Z" fill="#29CDFF"/>
<path d="M105.552 11.7129H104.18C104.059 11.7129 103.961 11.8128 103.961 11.936V13.3332C103.961 13.4564 104.059 13.5563 104.18 13.5563H105.552C105.673 13.5563 105.771 13.4564 105.771 13.3332V11.936C105.771 11.8128 105.673 11.7129 105.552 11.7129Z" fill="#29CDFF"/>
</g>
<path d="M9.2 4.24C10.0533 4.24 10.8133 4.44 11.48 4.84C12.1467 5.22667 12.6667 5.76667 13.04 6.46C13.4133 7.14 13.6 7.90667 13.6 8.76V9.02C13.6 9.87333 13.4133 10.6467 13.04 11.34C12.6667 12.0333 12.1467 12.58 11.48 12.98C10.8133 13.3667 10.0533 13.56 9.2 13.56H5.9V18H1.48V4.24H9.2ZM5.9 10.34H7.72C8.18667 10.34 8.53333 10.22 8.76 9.98C9 9.74 9.12 9.41333 9.12 9V8.84C9.12 8.41333 9 8.08667 8.76 7.86C8.53333 7.62 8.18667 7.5 7.72 7.5H5.9V10.34ZM28.9736 8.46C28.9736 9.3 28.7469 10.06 28.2936 10.74C27.8403 11.42 27.1803 11.92 26.3136 12.24L29.3736 18H24.4136L21.9736 12.98H20.3336V18H15.9136V4.24H24.3336C25.3203 4.24 26.1603 4.43333 26.8536 4.82C27.5603 5.19333 28.0869 5.70667 28.4336 6.36C28.7936 7 28.9736 7.7 28.9736 8.46ZM24.4736 8.64C24.4736 8.28 24.3536 7.98 24.1136 7.74C23.8736 7.5 23.5803 7.38 23.2336 7.38H20.3336V9.92H23.2336C23.5803 9.92 23.8736 9.8 24.1136 9.56C24.3536 9.30667 24.4736 9 24.4736 8.64ZM31.68 18V4.24H36.1V18H31.68ZM52.3134 8.46C52.3134 9.3 52.0868 10.06 51.6334 10.74C51.1801 11.42 50.5201 11.92 49.6534 12.24L52.7134 18H47.7534L45.3134 12.98H43.6734V18H39.2534V4.24H47.6734C48.6601 4.24 49.5001 4.43333 50.1934 4.82C50.9001 5.19333 51.4268 5.70667 51.7734 6.36C52.1334 7 52.3134 7.7 52.3134 8.46ZM47.8134 8.64C47.8134 8.28 47.6934 7.98 47.4534 7.74C47.2134 7.5 46.9201 7.38 46.5734 7.38H43.6734V9.92H46.5734C46.9201 9.92 47.2134 9.8 47.4534 9.56C47.6934 9.30667 47.8134 9 47.8134 8.64ZM61.3278 4C63.7011 4 65.5345 4.60667 66.8278 5.82C68.1211 7.03333 68.7678 8.8 68.7678 11.12C68.7678 13.44 68.1211 15.2067 66.8278 16.42C65.5345 17.6333 63.7011 18.24 61.3278 18.24C58.9545 18.24 57.1211 17.64 55.8278 16.44C54.5478 15.2267 53.9078 13.4533 53.9078 11.12C53.9078 8.78667 54.5478 7.02 55.8278 5.82C57.1211 4.60667 58.9545 4 61.3278 4ZM61.3278 7.3C60.3811 7.3 59.6611 7.58667 59.1678 8.16C58.6745 8.73333 58.4278 9.50667 58.4278 10.48V11.76C58.4278 12.7333 58.6745 13.5067 59.1678 14.08C59.6611 14.6533 60.3811 14.94 61.3278 14.94C62.2745 14.94 62.9945 14.6533 63.4878 14.08C63.9945 13.5067 64.2478 12.7333 64.2478 11.76V10.48C64.2478 9.50667 63.9945 8.73333 63.4878 8.16C62.9945 7.58667 62.2745 7.3 61.3278 7.3ZM76.928 4C78.688 4 80.1346 4.36 81.268 5.08C82.4013 5.78667 82.9813 6.84 83.008 8.24V8.48H78.868V8.4C78.868 8 78.7213 7.66667 78.428 7.4C78.1346 7.13333 77.688 7 77.088 7C76.5013 7 76.048 7.08667 75.728 7.26C75.4213 7.43333 75.268 7.64667 75.268 7.9C75.268 8.26 75.4813 8.52667 75.908 8.7C76.3346 8.87333 77.0213 9.05333 77.968 9.24C79.0746 9.46667 79.9813 9.70667 80.688 9.96C81.408 10.2 82.0346 10.6 82.568 11.16C83.1013 11.72 83.3746 12.48 83.388 13.44C83.388 15.0667 82.8346 16.2733 81.728 17.06C80.6346 17.8467 79.168 18.24 77.328 18.24C75.1813 18.24 73.508 17.88 72.308 17.16C71.1213 16.44 70.528 15.1667 70.528 13.34H74.708C74.708 14.0333 74.888 14.5 75.248 14.74C75.608 14.9667 76.168 15.08 76.928 15.08C77.488 15.08 77.948 15.02 78.308 14.9C78.6813 14.78 78.868 14.5333 78.868 14.16C78.868 13.8267 78.6613 13.58 78.248 13.42C77.848 13.2467 77.188 13.0667 76.268 12.88C75.148 12.64 74.2213 12.3933 73.488 12.14C72.7546 11.8733 72.1146 11.44 71.568 10.84C71.0213 10.24 70.748 9.42667 70.748 8.4C70.748 6.89333 71.328 5.78667 72.488 5.08C73.6613 4.36 75.1413 4 76.928 4Z" fill="#161616"/>
<defs>
<clipPath id="clip0_2576_9798">
<rect width="24" height="19" fill="white" transform="translate(94 2)"/>
</clipPath>
</defs>
</svg>
