<svg width="153" height="23" viewBox="0 0 153 23" fill="none" xmlns="http://www.w3.org/2000/svg">
<path d="M2.01465 9.85645C1.18622 9.85645 0.514649 10.528 0.514648 11.3564C0.514648 12.1849 1.18622 12.8564 2.01465 12.8564L2.01465 9.85645ZM152.047 12.4171C152.633 11.8313 152.633 10.8816 152.047 10.2958L142.501 0.749854C141.915 0.164067 140.965 0.164067 140.379 0.749854C139.794 1.33564 139.794 2.28539 140.379 2.87117L148.865 11.3565L140.379 19.8417C139.794 20.4275 139.794 21.3773 140.379 21.9631C140.965 22.5488 141.915 22.5488 142.501 21.9631L152.047 12.4171ZM2.01465 12.8564L150.986 12.8565L150.986 9.85646L2.01465 9.85645L2.01465 12.8564Z" fill="black"/>
</svg>
