<svg width="20" height="20" viewBox="0 0 20 20" fill="none" xmlns="http://www.w3.org/2000/svg">
<path d="M10.6008 4.16917L9.37914 4.16667C6.59247 4.16 4.1733 6.42417 4.15414 9.16667V12.325C4.15414 12.9833 4.0708 13.6258 3.71164 14.1733L3.47247 14.5383C3.1083 15.0917 3.49997 15.8333 4.15414 15.8333H15.8458C16.5 15.8333 16.8908 15.0917 16.5275 14.5383L16.2883 14.1733C15.93 13.6258 15.8458 12.9825 15.8458 12.3242V9.1675C15.8125 6.42417 13.3875 4.17584 10.6008 4.16917Z" stroke="#7C7B84" stroke-width="1.25" stroke-linecap="round" stroke-linejoin="round"/>
<path d="M12.5 15.8333C12.5 16.4964 12.2366 17.1323 11.7678 17.6011C11.2989 18.07 10.663 18.3333 10 18.3333C9.33696 18.3333 8.70107 18.07 8.23223 17.6011C7.76339 17.1323 7.5 16.4964 7.5 15.8333" stroke="#7C7B84" stroke-width="1.25" stroke-linecap="round" stroke-linejoin="round"/>
<path d="M10.0002 1.66666C10.4422 1.66666 10.8661 1.84225 11.1787 2.15481C11.4912 2.46737 11.6668 2.8913 11.6668 3.33332V4.16666H8.3335V3.33332C8.3335 2.8913 8.50909 2.46737 8.82165 2.15481C9.13421 1.84225 9.55814 1.66666 10.0002 1.66666Z" stroke="#7C7B84" stroke-width="1.25" stroke-linecap="round" stroke-linejoin="round"/>
</svg>
