<svg width="20" height="20" viewBox="0 0 20 20" fill="none" xmlns="http://www.w3.org/2000/svg">
<path d="M19 10C19 14.9706 14.9706 19 10 19C5.02944 19 1 14.9706 1 10C1 5.02944 5.02944 1 10 1C14.9706 1 19 5.02944 19 10Z" fill="black"/>
<path d="M7.72414 5.97177C7.31162 5.93427 6.94682 6.23827 6.90931 6.65079C6.87181 7.0633 7.17582 7.42811 7.58833 7.46561L7.72414 5.97177ZM12.8125 7.18744L13.5594 7.11954C13.5267 6.75898 13.241 6.4733 12.8804 6.44052L12.8125 7.18744ZM12.5344 12.4116C12.5719 12.8241 12.9367 13.1281 13.3492 13.0906C13.7617 13.0531 14.0657 12.6883 14.0282 12.2758L12.5344 12.4116ZM6.65715 12.2822C6.36426 12.575 6.36426 13.0499 6.65715 13.3428C6.95004 13.6357 7.42492 13.6357 7.71781 13.3428L6.65715 12.2822ZM7.58833 7.46561L12.7446 7.93436L12.8804 6.44052L7.72414 5.97177L7.58833 7.46561ZM12.0656 7.25534L12.5344 12.4116L14.0282 12.2758L13.5594 7.11954L12.0656 7.25534ZM12.2822 6.65711L6.65715 12.2822L7.71781 13.3428L13.3429 7.71777L12.2822 6.65711ZM18.25 10C18.25 14.5563 14.5563 18.25 10 18.25V19.75C15.3848 19.75 19.75 15.3848 19.75 10H18.25ZM10 18.25C5.44365 18.25 1.75 14.5563 1.75 10H0.25C0.25 15.3848 4.61522 19.75 10 19.75V18.25ZM1.75 10C1.75 5.44365 5.44365 1.75 10 1.75V0.25C4.61522 0.25 0.25 4.61522 0.25 10H1.75ZM10 1.75C14.5563 1.75 18.25 5.44365 18.25 10H19.75C19.75 4.61522 15.3848 0.25 10 0.25V1.75Z" fill="white"/>
</svg>
