<svg width="20" height="20" viewBox="0 0 20 20" fill="none" xmlns="http://www.w3.org/2000/svg">
<path d="M15.3907 5.25V12.9688C15.3907 13.205 15.2969 13.4315 15.1299 13.5985C14.9628 13.7655 14.7363 13.8594 14.5001 13.8594C14.2639 13.8594 14.0373 13.7655 13.8703 13.5985C13.7033 13.4315 13.6095 13.205 13.6095 12.9688V7.40234L5.63021 15.3801C5.46289 15.5474 5.23597 15.6414 4.99935 15.6414C4.76273 15.6414 4.5358 15.5474 4.36849 15.3801C4.20117 15.2128 4.10718 14.9859 4.10718 14.7493C4.10718 14.5126 4.20117 14.2857 4.36849 14.1184L12.3477 6.14062H6.78134C6.54513 6.14062 6.3186 6.04679 6.15157 5.87977C5.98455 5.71274 5.89071 5.48621 5.89071 5.25C5.89071 5.01379 5.98455 4.78726 6.15157 4.62023C6.3186 4.45321 6.54513 4.35938 6.78134 4.35938H14.5001C14.7363 4.35938 14.9628 4.45321 15.1299 4.62023C15.2969 4.78726 15.3907 5.01379 15.3907 5.25Z" fill="#1C1C1C"/>
</svg>
