<svg width="17" height="17" viewBox="0 0 17 17" fill="none" xmlns="http://www.w3.org/2000/svg">
<path d="M16 8.5C16 12.6421 12.6421 16 8.5 16C4.35786 16 1 12.6421 1 8.5C1 4.35786 4.35786 1 8.5 1C12.6421 1 16 4.35786 16 8.5Z" fill="black"/>
<path d="M6.61476 5.01865C6.20225 4.98115 5.83744 5.28516 5.79994 5.69767C5.76244 6.11018 6.06645 6.47499 6.47896 6.51249L6.61476 5.01865ZM10.8438 6.1562L11.5907 6.0883C11.5579 5.72774 11.2722 5.44206 10.9117 5.40928L10.8438 6.1562ZM10.4875 10.521C10.525 10.9335 10.8898 11.2375 11.3023 11.2C11.7148 11.1625 12.0188 10.7977 11.9813 10.3852L10.4875 10.521ZM5.6259 10.3134C5.33301 10.6063 5.33301 11.0812 5.6259 11.3741C5.9188 11.667 6.39367 11.667 6.68656 11.3741L5.6259 10.3134ZM6.47896 6.51249L10.7759 6.90312L10.9117 5.40928L6.61476 5.01865L6.47896 6.51249ZM10.0968 6.2241L10.4875 10.521L11.9813 10.3852L11.5907 6.0883L10.0968 6.2241ZM10.3134 5.62587L5.6259 10.3134L6.68656 11.3741L11.3741 6.68653L10.3134 5.62587ZM15.25 8.5C15.25 12.2279 12.2279 15.25 8.5 15.25V16.75C13.0563 16.75 16.75 13.0563 16.75 8.5H15.25ZM8.5 15.25C4.77208 15.25 1.75 12.2279 1.75 8.5H0.25C0.25 13.0563 3.94365 16.75 8.5 16.75V15.25ZM1.75 8.5C1.75 4.77208 4.77208 1.75 8.5 1.75V0.25C3.94365 0.25 0.25 3.94365 0.25 8.5H1.75ZM8.5 1.75C12.2279 1.75 15.25 4.77208 15.25 8.5H16.75C16.75 3.94365 13.0563 0.25 8.5 0.25V1.75Z" fill="white"/>
</svg>
