<svg width="14" height="14" viewBox="0 0 14 14" fill="none" xmlns="http://www.w3.org/2000/svg">
<rect width="14" height="14" fill="#FF1779"/>
<path d="M10.5971 11H9.02513L4.69313 4.076H4.64513C4.65313 4.236 4.66113 4.408 4.66913 4.592C4.68513 4.776 4.69713 4.972 4.70513 5.18C4.71313 5.38 4.72113 5.588 4.72913 5.804C4.73713 6.012 4.74113 6.224 4.74113 6.44V11H3.56513V2.432H5.12513L9.44513 9.32H9.48113C9.47313 9.2 9.46513 9.052 9.45713 8.876C9.44913 8.692 9.44113 8.496 9.43313 8.288C9.43313 8.08 9.42913 7.868 9.42113 7.652C9.41313 7.436 9.40513 7.232 9.39713 7.04V2.432H10.5971V11Z" fill="white"/>
</svg>
