<svg width="18" height="20" viewBox="0 0 18 20" fill="none" xmlns="http://www.w3.org/2000/svg">
<path fill-rule="evenodd" clip-rule="evenodd" d="M15 5.14258V4.16699C15 2.78628 13.9926 1.66699 12.75 1.66699H3.75C2.50736 1.66699 1.5 2.78628 1.5 4.16699V15.8337C1.5 17.2144 2.50736 18.3337 3.75 18.3337H14.25C15.4926 18.3337 16.5 17.2144 16.5 15.8337V7.50033C16.5 6.41181 15.8739 5.48578 15 5.14258ZM3 4.16699C3 3.70675 3.33579 3.33366 3.75 3.33366H12.75C13.1642 3.33366 13.5 3.70675 13.5 4.16699V5.00033H3.75C3.33579 5.00033 3 4.62723 3 4.16699ZM3 6.52474C3.23458 6.61686 3.48702 6.66699 3.75 6.66699H14.25C14.6642 6.66699 15 7.04009 15 7.50033V9.16699H12.75C11.5074 9.16699 10.5 10.2863 10.5 11.667C10.5 13.0477 11.5074 14.167 12.75 14.167H15V15.8337C15 16.2939 14.6642 16.667 14.25 16.667H3.75C3.33579 16.667 3 16.2939 3 15.8337V6.52474ZM12.75 10.8337H15V12.5003H12.75C12.3358 12.5003 12 12.1272 12 11.667C12 11.2068 12.3358 10.8337 12.75 10.8337Z" fill="black"/>
</svg>
