<svg width="18" height="20" viewBox="0 0 18 20" fill="none" xmlns="http://www.w3.org/2000/svg">
<path fill-rule="evenodd" clip-rule="evenodd" d="M15 5.14209V4.1665C15 2.78579 13.9926 1.6665 12.75 1.6665H3.75C2.50736 1.6665 1.5 2.78579 1.5 4.1665V15.8332C1.5 17.2139 2.50736 18.3332 3.75 18.3332H14.25C15.4926 18.3332 16.5 17.2139 16.5 15.8332V7.49984C16.5 6.41132 15.8739 5.48529 15 5.14209ZM3 4.1665C3 3.70627 3.33579 3.33317 3.75 3.33317H12.75C13.1642 3.33317 13.5 3.70627 13.5 4.1665V4.99984H3.75C3.33579 4.99984 3 4.62674 3 4.1665ZM3 6.52425C3.23458 6.61638 3.48702 6.6665 3.75 6.6665H14.25C14.6642 6.6665 15 7.0396 15 7.49984V9.1665H12.75C11.5074 9.1665 10.5 10.2858 10.5 11.6665C10.5 13.0472 11.5074 14.1665 12.75 14.1665H15V15.8332C15 16.2934 14.6642 16.6665 14.25 16.6665H3.75C3.33579 16.6665 3 16.2934 3 15.8332V6.52425ZM12.75 10.8332H15V12.4998H12.75C12.3358 12.4998 12 12.1267 12 11.6665C12 11.2063 12.3358 10.8332 12.75 10.8332Z" fill="#757575"/>
</svg>
