<svg width="22" height="24" viewBox="0 0 22 24" fill="none" xmlns="http://www.w3.org/2000/svg">
<g clip-path="url(#clip0_11_6686)">
<path d="M16.7502 6.87689H14.1252V5.87689C14.1252 5.80814 14.069 5.75189 14.0002 5.75189H13.1252C13.0565 5.75189 13.0002 5.80814 13.0002 5.87689V6.87689H9.00024V5.87689C9.00024 5.80814 8.94399 5.75189 8.87524 5.75189H8.00024C7.93149 5.75189 7.87524 5.80814 7.87524 5.87689V6.87689H5.25024C4.97368 6.87689 4.75024 7.10033 4.75024 7.37689V17.7519C4.75024 18.0285 4.97368 18.2519 5.25024 18.2519H16.7502C17.0268 18.2519 17.2502 18.0285 17.2502 17.7519V7.37689C17.2502 7.10033 17.0268 6.87689 16.7502 6.87689ZM16.1252 17.1269H5.87524V11.1894H16.1252V17.1269ZM5.87524 10.1269V8.00189H7.87524V8.75189C7.87524 8.82064 7.93149 8.87689 8.00024 8.87689H8.87524C8.94399 8.87689 9.00024 8.82064 9.00024 8.75189V8.00189H13.0002V8.75189C13.0002 8.82064 13.0565 8.87689 13.1252 8.87689H14.0002C14.069 8.87689 14.1252 8.82064 14.1252 8.75189V8.00189H16.1252V10.1269H5.87524Z" fill="#2B2B2B"/>
</g>
<defs>
<clipPath id="clip0_11_6686">
<rect width="14" height="14" fill="white" transform="translate(4 5)"/>
</clipPath>
</defs>
</svg>
