<svg width="24" height="24" viewBox="0 0 24 24" fill="none" xmlns="http://www.w3.org/2000/svg">
<path d="M18.85 3.2H16.75V2.1C16.75 1.80826 16.6394 1.52847 16.4425 1.32218C16.2455 1.11589 15.9785 1 15.7 1C15.4215 1 15.1545 1.11589 14.9575 1.32218C14.7606 1.52847 14.65 1.80826 14.65 2.1V3.2H8.35V2.1C8.35 1.80826 8.23937 1.52847 8.04246 1.32218C7.84555 1.11589 7.57848 1 7.3 1C7.02152 1 6.75445 1.11589 6.55754 1.32218C6.36062 1.52847 6.25 1.80826 6.25 2.1V3.2H4.15C3.31457 3.2 2.51335 3.54768 1.92261 4.16655C1.33187 4.78542 1 5.62479 1 6.5V19.7C1 20.5752 1.33187 21.4146 1.92261 22.0335C2.51335 22.6523 3.31457 23 4.15 23H18.85C19.6854 23 20.4866 22.6523 21.0774 22.0335C21.6681 21.4146 22 20.5752 22 19.7V6.5C22 5.62479 21.6681 4.78542 21.0774 4.16655C20.4866 3.54768 19.6854 3.2 18.85 3.2ZM19.9 19.7C19.9 19.9917 19.7894 20.2715 19.5925 20.4778C19.3955 20.6841 19.1285 20.8 18.85 20.8H4.15C3.87152 20.8 3.60445 20.6841 3.40754 20.4778C3.21062 20.2715 3.1 19.9917 3.1 19.7V12H19.9V19.7ZM19.9 9.8H3.1V6.5C3.1 6.20826 3.21062 5.92847 3.40754 5.72218C3.60445 5.51589 3.87152 5.4 4.15 5.4H6.25V6.5C6.25 6.79174 6.36062 7.07153 6.55754 7.27782C6.75445 7.48411 7.02152 7.6 7.3 7.6C7.57848 7.6 7.84555 7.48411 8.04246 7.27782C8.23937 7.07153 8.35 6.79174 8.35 6.5V5.4H14.65V6.5C14.65 6.79174 14.7606 7.07153 14.9575 7.27782C15.1545 7.48411 15.4215 7.6 15.7 7.6C15.9785 7.6 16.2455 7.48411 16.4425 7.27782C16.6394 7.07153 16.75 6.79174 16.75 6.5V5.4H18.85C19.1285 5.4 19.3955 5.51589 19.5925 5.72218C19.7894 5.92847 19.9 6.20826 19.9 6.5V9.8Z" fill="#C4C5D0"/>
</svg>
