<svg width="24" height="24" viewBox="0 0 24 24" fill="none" xmlns="http://www.w3.org/2000/svg">
<path d="M19.9004 10.3999C19.9004 5.76074 16.1397 2 11.5005 2C6.86142 2 3.10068 5.76074 3.10068 10.3999" stroke="#C4C5D0" stroke-width="2" stroke-linecap="round" stroke-linejoin="round"/>
<path d="M1 15.0602V13.0896C1 12.1259 1.65581 11.286 2.59065 11.0523L4.41715 10.5957C4.81476 10.4962 5.19993 10.797 5.19993 11.2069V16.9429C5.19993 17.3528 4.81476 17.6535 4.41715 17.5541L2.59065 17.0975C1.65581 16.8637 1 16.0239 1 15.0602Z" stroke="#C4C5D0" stroke-width="2"/>
<path d="M22 15.0602V13.0896C22 12.1259 21.3442 11.286 20.4094 11.0523L18.5828 10.5957C18.1852 10.4962 17.8001 10.797 17.8001 11.2069V16.9429C17.8001 17.3528 18.1852 17.6535 18.5828 17.5541L20.4094 17.0975C21.3442 16.8637 22 16.0239 22 15.0602Z" stroke="#C4C5D0" stroke-width="2"/>
<path d="M19.8997 17.7498V18.2747C19.8997 19.4346 18.9595 20.3747 17.7997 20.3747H14.1248" stroke="#C4C5D0" stroke-width="2"/>
<path d="M13.0755 21.95H9.92556C9.05572 21.95 8.35059 21.2448 8.35059 20.375C8.35059 19.5052 9.05572 18.8 9.92556 18.8H13.0755C13.9453 18.8 14.6505 19.5052 14.6505 20.375C14.6505 21.2448 13.9453 21.95 13.0755 21.95Z" stroke="#C4C5D0" stroke-width="2"/>
</svg>
