<svg width="29" height="29" viewBox="0 0 29 29" fill="none" xmlns="http://www.w3.org/2000/svg">
<circle cx="14.7378" cy="14.7378" r="13.4878" fill="#7D8392" stroke="white" stroke-width="1.5"/>
<path d="M9.47768 21.735H20.5351C21.553 21.735 22.3781 20.9099 22.3781 19.8921V12.3361C22.3781 11.3183 21.553 10.4932 20.5351 10.4932H18.6922L17.4022 8.28174H12.6106L11.3206 10.4932H9.47768C8.45987 10.4932 7.63477 11.3183 7.63477 12.3361V19.8921C7.63477 20.9099 8.45987 21.735 9.47768 21.735Z" fill="white"/>
<path d="M17.7708 15.6534C17.7708 17.1801 16.5331 18.4178 15.0064 18.4178C13.4797 18.4178 12.242 17.1801 12.242 15.6534C12.242 14.1267 13.4797 12.889 15.0064 12.889C16.5331 12.889 17.7708 14.1267 17.7708 15.6534Z" fill="white"/>
<path d="M11.3206 10.4932V11.2432C11.5873 11.2432 11.834 11.1015 11.9684 10.8711L11.3206 10.4932ZM12.6106 8.28174V7.53174C12.3439 7.53174 12.0972 7.67342 11.9628 7.90384L12.6106 8.28174ZM17.4022 8.28174L18.05 7.90384C17.9156 7.67342 17.6689 7.53174 17.4022 7.53174V8.28174ZM18.6922 10.4932L18.0444 10.8711C18.1788 11.1015 18.4255 11.2432 18.6922 11.2432V10.4932ZM8.38477 19.8921V12.3361H6.88477V19.8921H8.38477ZM9.47768 11.2432H11.3206V9.74323H9.47768V11.2432ZM11.9684 10.8711L13.2585 8.65964L11.9628 7.90384L10.6728 10.1153L11.9684 10.8711ZM12.6106 9.03174H17.4022V7.53174H12.6106V9.03174ZM16.7544 8.65964L18.0444 10.8711L19.3401 10.1153L18.05 7.90384L16.7544 8.65964ZM18.6922 11.2432H20.5351V9.74323H18.6922V11.2432ZM21.6281 12.3361V19.8921H23.1281V12.3361H21.6281ZM21.6281 19.8921C21.6281 20.4957 21.1387 20.985 20.5351 20.985V22.485C21.9672 22.485 23.1281 21.3241 23.1281 19.8921H21.6281ZM20.5351 11.2432C21.1387 11.2432 21.6281 11.7325 21.6281 12.3361H23.1281C23.1281 10.9041 21.9672 9.74323 20.5351 9.74323V11.2432ZM8.38477 12.3361C8.38477 11.7325 8.87408 11.2432 9.47768 11.2432V9.74323C8.04565 9.74323 6.88477 10.9041 6.88477 12.3361H8.38477ZM9.47768 20.985C8.87408 20.985 8.38477 20.4957 8.38477 19.8921H6.88477C6.88477 21.3241 8.04565 22.485 9.47768 22.485V20.985ZM17.0208 15.6534C17.0208 16.7659 16.1189 17.6678 15.0064 17.6678V19.1678C16.9473 19.1678 18.5208 17.5943 18.5208 15.6534H17.0208ZM15.0064 17.6678C13.8939 17.6678 12.992 16.7659 12.992 15.6534H11.492C11.492 17.5943 13.0655 19.1678 15.0064 19.1678V17.6678ZM12.992 15.6534C12.992 14.5409 13.8939 13.639 15.0064 13.639V12.139C13.0655 12.139 11.492 13.7125 11.492 15.6534H12.992ZM15.0064 13.639C16.1189 13.639 17.0208 14.5409 17.0208 15.6534H18.5208C18.5208 13.7125 16.9473 12.139 15.0064 12.139V13.639ZM20.5351 20.985H9.47768V22.485H20.5351V20.985Z" fill="#7D8392"/>
</svg>
