<svg width="19" height="19" viewBox="0 0 19 19" fill="none" xmlns="http://www.w3.org/2000/svg">
<path d="M19 9.94531C19 10.6096 18.8404 11.2256 18.5213 11.7896C18.2021 12.3537 17.7754 12.7953 17.2373 13.1033C17.2521 13.2035 17.2596 13.3594 17.2596 13.5709C17.2596 14.5766 16.9219 15.4301 16.2539 16.1352C15.5822 16.8439 14.7732 17.1965 13.827 17.1965C13.4039 17.1965 12.9994 17.1186 12.6172 16.9627C12.3203 17.5713 11.8936 18.0611 11.3332 18.4359C10.7766 18.8145 10.1643 19 9.5 19C8.8209 19 8.20488 18.8182 7.65566 18.4471C7.10273 18.0797 6.67969 17.5861 6.38281 16.9627C6.00059 17.1186 5.5998 17.1965 5.17305 17.1965C4.22676 17.1965 3.41406 16.8439 2.73496 16.1352C2.05586 15.4301 1.71816 14.5729 1.71816 13.5709C1.71816 13.4596 1.73301 13.3037 1.75898 13.1033C1.2209 12.7916 0.794141 12.3537 0.475 11.7896C0.15957 11.2256 0 10.6096 0 9.94531C0 9.24023 0.178125 8.59082 0.530664 8.00449C0.883203 7.41816 1.3582 6.98398 1.95195 6.70195C1.79609 6.27891 1.71816 5.85215 1.71816 5.4291C1.71816 4.42715 2.05586 3.56992 2.73496 2.86484C3.41406 2.15977 4.22676 1.80352 5.17305 1.80352C5.59609 1.80352 6.00059 1.88145 6.38281 2.0373C6.67969 1.42871 7.10645 0.938867 7.6668 0.564062C8.22344 0.189258 8.83574 0 9.5 0C10.1643 0 10.7766 0.189258 11.3332 0.560352C11.8898 0.935156 12.3203 1.425 12.6172 2.03359C12.9994 1.87773 13.4002 1.7998 13.827 1.7998C14.7732 1.7998 15.5822 2.15234 16.2539 2.86113C16.9256 3.56992 17.2596 4.42344 17.2596 5.42539C17.2596 5.89297 17.1891 6.31602 17.048 6.69824C17.6418 6.98027 18.1168 7.41445 18.4693 8.00078C18.8219 8.59082 19 9.24023 19 9.94531ZM9.09551 12.8064L13.018 6.93203C13.1182 6.77617 13.1479 6.60547 13.1145 6.42363C13.0773 6.2418 12.9846 6.09707 12.8287 6.00059C12.6729 5.90039 12.5021 5.86699 12.3203 5.89297C12.1348 5.92266 11.9863 6.01172 11.875 6.16758L8.42012 11.3629L6.82812 9.77461C6.68711 9.63359 6.52383 9.5668 6.34199 9.57422C6.15645 9.58164 5.99687 9.64844 5.85586 9.77461C5.72969 9.90078 5.6666 10.0604 5.6666 10.2533C5.6666 10.4426 5.72969 10.6021 5.85586 10.732L8.0416 12.9178L8.14922 13.0031C8.27539 13.0885 8.40527 13.1293 8.53144 13.1293C8.78008 13.1256 8.96934 13.0217 9.09551 12.8064Z" fill="#1DA1F2"/>
</svg>
