<svg width="24" height="24" viewBox="0 0 24 24" fill="none" xmlns="http://www.w3.org/2000/svg">
<path d="M9.77778 13.1111H3.11111C2.81643 13.1111 2.53381 13.2282 2.32544 13.4365C2.11706 13.6449 2 13.9275 2 14.2222V20.8889C2 21.1836 2.11706 21.4662 2.32544 21.6746C2.53381 21.8829 2.81643 22 3.11111 22H9.77778C10.0725 22 10.3551 21.8829 10.5635 21.6746C10.7718 21.4662 10.8889 21.1836 10.8889 20.8889V14.2222C10.8889 13.9275 10.7718 13.6449 10.5635 13.4365C10.3551 13.2282 10.0725 13.1111 9.77778 13.1111ZM8.66667 19.7778H4.22222V15.3333H8.66667V19.7778ZM20.8889 2H14.2222C13.9275 2 13.6449 2.11706 13.4365 2.32544C13.2282 2.53381 13.1111 2.81643 13.1111 3.11111V9.77778C13.1111 10.0725 13.2282 10.3551 13.4365 10.5635C13.6449 10.7718 13.9275 10.8889 14.2222 10.8889H20.8889C21.1836 10.8889 21.4662 10.7718 21.6746 10.5635C21.8829 10.3551 22 10.0725 22 9.77778V3.11111C22 2.81643 21.8829 2.53381 21.6746 2.32544C21.4662 2.11706 21.1836 2 20.8889 2ZM19.7778 8.66667H15.3333V4.22222H19.7778V8.66667ZM20.8889 16.4444H18.6667V14.2222C18.6667 13.9275 18.5496 13.6449 18.3412 13.4365C18.1329 13.2282 17.8502 13.1111 17.5556 13.1111C17.2609 13.1111 16.9783 13.2282 16.7699 13.4365C16.5615 13.6449 16.4444 13.9275 16.4444 14.2222V16.4444H14.2222C13.9275 16.4444 13.6449 16.5615 13.4365 16.7699C13.2282 16.9783 13.1111 17.2609 13.1111 17.5556C13.1111 17.8502 13.2282 18.1329 13.4365 18.3412C13.6449 18.5496 13.9275 18.6667 14.2222 18.6667H16.4444V20.8889C16.4444 21.1836 16.5615 21.4662 16.7699 21.6746C16.9783 21.8829 17.2609 22 17.5556 22C17.8502 22 18.1329 21.8829 18.3412 21.6746C18.5496 21.4662 18.6667 21.1836 18.6667 20.8889V18.6667H20.8889C21.1836 18.6667 21.4662 18.5496 21.6746 18.3412C21.8829 18.1329 22 17.8502 22 17.5556C22 17.2609 21.8829 16.9783 21.6746 16.7699C21.4662 16.5615 21.1836 16.4444 20.8889 16.4444ZM9.77778 2H3.11111C2.81643 2 2.53381 2.11706 2.32544 2.32544C2.11706 2.53381 2 2.81643 2 3.11111V9.77778C2 10.0725 2.11706 10.3551 2.32544 10.5635C2.53381 10.7718 2.81643 10.8889 3.11111 10.8889H9.77778C10.0725 10.8889 10.3551 10.7718 10.5635 10.5635C10.7718 10.3551 10.8889 10.0725 10.8889 9.77778V3.11111C10.8889 2.81643 10.7718 2.53381 10.5635 2.32544C10.3551 2.11706 10.0725 2 9.77778 2ZM8.66667 8.66667H4.22222V4.22222H8.66667V8.66667Z" fill="#7EF422"/>
</svg>
