<svg width="20" height="20" viewBox="0 0 20 20" fill="none" xmlns="http://www.w3.org/2000/svg">
<path d="M9.24874 3.16975H4.51C2.93971 3.16975 1.66675 4.44267 1.66675 6.0129V15.4902C1.66675 17.0604 2.93971 18.3333 4.51 18.3333H13.9875C15.5578 18.3333 16.8307 17.0604 16.8307 15.4902L16.8307 10.7515M6.40549 13.5947L9.85371 12.8999C10.0368 12.863 10.2048 12.7729 10.3368 12.6408L18.056 4.91764C18.4261 4.54736 18.4259 3.94714 18.0554 3.57717L16.4203 1.94387C16.05 1.57405 15.4501 1.5743 15.0801 1.94444L7.36016 9.66839C7.22842 9.8002 7.13846 9.96794 7.10154 10.1506L6.40549 13.5947Z" stroke="#7E7E7E" stroke-width="1.5" stroke-linecap="round" stroke-linejoin="round"/>
</svg>
