<svg width="20" height="20" viewBox="0 0 20 20" fill="none" xmlns="http://www.w3.org/2000/svg">
<path d="M9.24862 3.16982H4.50987C2.93959 3.16982 1.66663 4.44275 1.66663 6.01298V15.4903C1.66663 17.0605 2.93959 18.3334 4.50987 18.3334H13.9874C15.5576 18.3334 16.8306 17.0605 16.8306 15.4903L16.8306 10.7516M6.40537 13.5947L9.85359 12.9C10.0366 12.8631 10.2047 12.7729 10.3367 12.6409L18.0559 4.91772C18.426 4.54743 18.4257 3.94722 18.0553 3.57725L16.4201 1.94395C16.0499 1.57413 15.4499 1.57438 15.08 1.94451L7.36004 9.66846C7.22829 9.80028 7.13833 9.96801 7.10142 10.1507L6.40537 13.5947Z" stroke="black" stroke-width="1.5" stroke-linecap="round" stroke-linejoin="round"/>
</svg>
