<svg width="20" height="24" viewBox="0 0 20 24" fill="none" xmlns="http://www.w3.org/2000/svg">
<path d="M18.74 22.8279H2.68555V1.422H14.0991V6.2251H18.74V22.8279Z" fill="#FCFCFC" stroke="#818181" stroke-miterlimit="10"/>
<path d="M18.7151 6.30293L14.0742 1.50314L14.3335 1.17212L18.9992 5.95756L18.7151 6.30293Z" fill="#818181"/>
<path d="M9.79819 6.79785H1.1034C0.494009 6.79785 0 7.29186 0 7.90125V16.596C0 17.2054 0.494009 17.6994 1.1034 17.6994H9.79819C10.4076 17.6994 10.9016 17.2054 10.9016 16.596V7.90125C10.9016 7.29186 10.4076 6.79785 9.79819 6.79785Z" fill="#107C42"/>
<path d="M8.32679 15.8369H6.87417L2.57422 8.6604H4.05608L8.32679 15.8369Z" fill="white"/>
<path d="M2.57422 15.8369H4.02685L8.32679 8.6604H6.84493L2.57422 15.8369Z" fill="white"/>
<path d="M14.0968 9.58496H11.4707V10.7496H14.0968V9.58496Z" fill="#21A365"/>
<path d="M17.3429 9.58496H14.7168V10.7496H17.3429V9.58496Z" fill="#33C481"/>
<path d="M14.0968 11.3444H11.4707V12.509H14.0968V11.3444Z" fill="#107C42"/>
<path d="M17.3429 11.3444H14.7168V12.509H17.3429V11.3444Z" fill="#21A365"/>
<path d="M14.0968 13.1031H11.4707V14.2678H14.0968V13.1031Z" fill="#195D38"/>
<path d="M17.3429 13.1031H14.7168V14.2678H17.3429V13.1031Z" fill="#104B2B"/>
</svg>
