<svg width="20" height="20" viewBox="0 0 20 20" fill="none" xmlns="http://www.w3.org/2000/svg">
<path d="M7.33333 2H3.77778C2.79594 2 2 2.79594 2 3.77778V7.33333M7.33333 18H3.77778C2.79594 18 2 17.2041 2 16.2222V12.6667M12.6667 2H16.2222C17.2041 2 18 2.79594 18 3.77778V7.33333M18 12.6667V16.2222C18 17.2041 17.2041 18 16.2222 18H12.6667M6.5 7.63769V6.6627M13.5 7.63769V6.6627M7.21055 13.0001C8.35068 13.8835 10.9074 13.8835 12.5005 13.0001M9.5 10.5627L9.70711 10.3608C9.89464 10.1779 10 9.92992 10 9.67133V7.15019" stroke="#7E7E7E" stroke-width="1.5" stroke-linecap="round"/>
</svg>
