<svg width="21" height="22" viewBox="0 0 21 22" fill="none" xmlns="http://www.w3.org/2000/svg">
<path d="M1.3125 7.325C1.3125 5.85486 1.3125 5.11979 1.59861 4.55828C1.85028 4.06435 2.25185 3.66278 2.74578 3.41111C3.30729 3.125 4.04236 3.125 5.5125 3.125H6.86141C7.76736 3.125 8.22033 3.125 8.62371 3.25917C8.98055 3.37786 9.30772 3.57184 9.58308 3.82797C9.89434 4.11751 10.1117 4.51494 10.5464 5.30979L11.0742 6.275H15.4875C16.9576 6.275 17.6927 6.275 18.2542 6.56111C18.7482 6.81278 19.1497 7.21435 19.4014 7.70827C19.6875 8.26979 19.6875 9.00486 19.6875 10.475V14.675C19.6875 16.1451 19.6875 16.8802 19.4014 17.4417C19.1497 17.9357 18.7482 18.3372 18.2542 18.5889C17.6927 18.875 16.9576 18.875 15.4875 18.875H5.5125C4.04236 18.875 3.30729 18.875 2.74577 18.5889C2.25185 18.3372 1.85028 17.9357 1.59861 17.4417C1.3125 16.8802 1.3125 16.1451 1.3125 14.675V7.325Z" stroke="black" stroke-width="2"/>
</svg>
