<svg width="20" height="20" viewBox="0 0 20 20" fill="none" xmlns="http://www.w3.org/2000/svg">
<path d="M15.3729 15.2115L14.9915 14.5657L15.3729 15.2115ZM15.7825 14.4939H15.0325H15.7825ZM9.13804 17.8362L8.7357 18.4691L9.13804 17.8362ZM10.8796 17.8648L11.2609 18.5106L10.8796 17.8648ZM1.58679 6.7806L1.20284 6.13633L1.58679 6.7806ZM1.58679 7.49645L1.20284 8.14073H1.20284L1.58679 7.49645ZM10.4267 12.256L10.8106 12.9003L10.4267 12.256ZM9.57344 12.256L9.95738 11.6117L9.57344 12.256ZM18.4133 6.7806L18.7972 6.13633L18.4133 6.7806ZM18.4133 7.49645L18.0294 6.85218L18.4133 7.49645ZM5.01469 15.2152L5.41703 14.5822L5.01469 15.2152ZM10.4267 2.02104L10.0427 2.66531L10.4267 2.02104ZM9.57344 2.02104L9.95738 2.66531L9.57344 2.02104ZM19.25 7.12465C19.25 6.71044 18.9143 6.37465 18.5 6.37465C18.0858 6.37465 17.75 6.71044 17.75 7.12465H19.25ZM17.75 11.6247C17.75 12.0389 18.0858 12.3747 18.5 12.3747C18.9143 12.3747 19.25 12.0389 19.25 11.6247H17.75ZM10.0427 2.66531L18.0294 7.42487L18.7972 6.13633L10.8106 1.37677L10.0427 2.66531ZM18.0294 6.85218L10.0427 11.6117L10.8106 12.9003L18.7972 8.14073L18.0294 6.85218ZM1.97073 7.42487L9.95738 2.66531L9.18949 1.37677L1.20284 6.13633L1.97073 7.42487ZM9.95738 11.6117L5.01235 8.6648L4.24445 9.95334L9.18949 12.9003L9.95738 11.6117ZM5.01235 8.6648L1.97073 6.85218L1.20284 8.14073L4.24445 9.95334L5.01235 8.6648ZM3.8784 9.30907V14.5119H5.3784V9.30907H3.8784ZM4.61235 15.8481L8.7357 18.4691L9.54038 17.2032L5.41703 14.5822L4.61235 15.8481ZM11.2609 18.5106L15.7542 15.8573L14.9915 14.5657L10.4982 17.219L11.2609 18.5106ZM16.5325 14.4939L16.5325 9.30907L15.0325 9.30907L15.0325 14.4939H16.5325ZM15.7542 15.8573C16.2366 15.5725 16.5325 15.054 16.5325 14.4939H15.0325C15.0325 14.5234 15.0169 14.5507 14.9915 14.5657L15.7542 15.8573ZM8.7357 18.4691C9.50269 18.9567 10.4783 18.9727 11.2609 18.5106L10.4982 17.219C10.2014 17.3943 9.8313 17.3882 9.54038 17.2032L8.7357 18.4691ZM1.20284 6.13633C0.443615 6.58878 0.443619 7.68828 1.20284 8.14073L1.97073 6.85218C2.18765 6.98145 2.18765 7.2956 1.97073 7.42487L1.20284 6.13633ZM10.0427 11.6117C10.0164 11.6274 9.98367 11.6274 9.95738 11.6117L9.18949 12.9003C9.68888 13.1979 10.3112 13.1979 10.8106 12.9003L10.0427 11.6117ZM18.0294 7.42487C17.8124 7.2956 17.8124 6.98145 18.0294 6.85218L18.7972 8.14073C19.5565 7.68828 19.5565 6.58878 18.7972 6.13633L18.0294 7.42487ZM3.8784 14.5119C3.8784 15.0535 4.15526 15.5576 4.61235 15.8481L5.41703 14.5822C5.39297 14.5669 5.3784 14.5404 5.3784 14.5119H3.8784ZM10.8106 1.37677C10.3112 1.07916 9.68888 1.07916 9.18949 1.37677L9.95738 2.66531C9.98367 2.64965 10.0164 2.64965 10.0427 2.66531L10.8106 1.37677ZM17.75 7.12465V11.6247H19.25V7.12465H17.75Z" fill="black"/>
</svg>
