<svg width="20" height="20" viewBox="0 0 20 20" fill="none" xmlns="http://www.w3.org/2000/svg">
<path d="M15.3728 15.2116L14.9914 14.5657L15.3728 15.2116ZM15.7824 14.494H15.0324H15.7824ZM9.13792 17.8363L8.73558 18.4692L9.13792 17.8363ZM10.8794 17.8648L11.2608 18.5107L10.8794 17.8648ZM1.58666 6.78066L1.20272 6.13639L1.58666 6.78066ZM1.58666 7.49652L1.20272 8.14079H1.20272L1.58666 7.49652ZM10.4265 12.2561L10.8105 12.9003L10.4265 12.2561ZM9.57331 12.2561L9.95726 11.6118L9.57331 12.2561ZM18.4132 6.78066L18.7971 6.13639L18.4132 6.78066ZM18.4132 7.49652L18.0292 6.85224L18.4132 7.49652ZM5.01457 15.2152L5.41691 14.5823L5.01457 15.2152ZM10.4265 2.0211L10.0426 2.66537L10.4265 2.0211ZM9.57332 2.0211L9.95726 2.66537L9.57332 2.0211ZM19.2499 7.12472C19.2499 6.7105 18.9141 6.37472 18.4999 6.37472C18.0857 6.37472 17.7499 6.7105 17.7499 7.12472H19.2499ZM17.7499 11.6247C17.7499 12.0389 18.0857 12.3747 18.4999 12.3747C18.9141 12.3747 19.2499 12.0389 19.2499 11.6247H17.7499ZM10.0426 2.66537L18.0292 7.42493L18.7971 6.13639L10.8105 1.37683L10.0426 2.66537ZM18.0292 6.85224L10.0426 11.6118L10.8105 12.9003L18.7971 8.14079L18.0292 6.85224ZM1.97061 7.42493L9.95726 2.66537L9.18937 1.37683L1.20272 6.13639L1.97061 7.42493ZM9.95726 11.6118L5.01222 8.66486L4.24433 9.9534L9.18937 12.9003L9.95726 11.6118ZM5.01222 8.66486L1.97061 6.85224L1.20272 8.14079L4.24433 9.9534L5.01222 8.66486ZM3.87828 9.30913V14.5119H5.37828V9.30913H3.87828ZM4.61223 15.8482L8.73558 18.4692L9.54025 17.2033L5.41691 14.5823L4.61223 15.8482ZM11.2608 18.5107L15.7541 15.8574L14.9914 14.5657L10.4981 17.219L11.2608 18.5107ZM16.5324 14.494L16.5324 9.30913L15.0324 9.30913L15.0324 14.494H16.5324ZM15.7541 15.8574C16.2364 15.5726 16.5324 15.0541 16.5324 14.494H15.0324C15.0324 14.5235 15.0168 14.5508 14.9914 14.5657L15.7541 15.8574ZM8.73558 18.4692C9.50256 18.9567 10.4782 18.9728 11.2608 18.5107L10.4981 17.219C10.2013 17.3943 9.83118 17.3882 9.54025 17.2033L8.73558 18.4692ZM1.20272 6.13639C0.443493 6.58884 0.443497 7.68834 1.20272 8.14079L1.97061 6.85224C2.18753 6.98151 2.18753 7.29566 1.97061 7.42493L1.20272 6.13639ZM10.0426 11.6118C10.0163 11.6275 9.98354 11.6275 9.95726 11.6118L9.18937 12.9003C9.68876 13.1979 10.3111 13.1979 10.8105 12.9003L10.0426 11.6118ZM18.0292 7.42493C17.8123 7.29566 17.8123 6.98152 18.0292 6.85224L18.7971 8.14079C19.5563 7.68834 19.5563 6.58884 18.7971 6.13639L18.0292 7.42493ZM3.87828 14.5119C3.87828 15.0536 4.15514 15.5576 4.61223 15.8482L5.41691 14.5823C5.39285 14.567 5.37828 14.5405 5.37828 14.5119H3.87828ZM10.8105 1.37683C10.3111 1.07922 9.68876 1.07922 9.18937 1.37683L9.95726 2.66537C9.98355 2.64971 10.0163 2.64971 10.0426 2.66537L10.8105 1.37683ZM17.7499 7.12472V11.6247H19.2499V7.12472H17.7499Z" fill="#7E7E7E"/>
</svg>
