<svg width="20" height="20" viewBox="0 0 20 20" fill="none" xmlns="http://www.w3.org/2000/svg">
<path d="M12.083 9.14054C13.7274 8.93562 14.9999 7.5329 14.9999 5.83297C14.9999 4.13304 13.7274 2.73032 12.083 2.52539C12.8611 3.40684 13.3333 4.56477 13.3333 5.83297C13.3333 7.10117 12.8611 8.25909 12.083 9.14054Z" fill="black"/>
<path d="M16.6665 16.6667C16.6665 17.1269 17.0396 17.5 17.4998 17.5C17.9601 17.5 18.3332 17.1269 18.3332 16.6667V15C18.3332 12.7833 16.6021 10.9708 14.418 10.8408C15.2947 11.6173 15.9655 12.6211 16.3378 13.76C16.5469 14.1255 16.6665 14.5488 16.6665 15V16.6667Z" fill="black"/>
<path fill-rule="evenodd" clip-rule="evenodd" d="M5.83366 12.4997C4.45295 12.4997 3.33366 13.619 3.33366 14.9997V16.6663C3.33366 17.1266 2.96056 17.4997 2.50033 17.4997C2.04009 17.4997 1.66699 17.1266 1.66699 16.6663V14.9997C1.66699 12.6985 3.53247 10.833 5.83366 10.833H10.8337C13.1348 10.833 15.0003 12.6985 15.0003 14.9997V16.6663C15.0003 17.1266 14.6272 17.4997 14.167 17.4997C13.7068 17.4997 13.3337 17.1266 13.3337 16.6663V14.9997C13.3337 13.619 12.2144 12.4997 10.8337 12.4997H5.83366Z" fill="black"/>
<path fill-rule="evenodd" clip-rule="evenodd" d="M8.33333 4.16667C7.41286 4.16667 6.66667 4.91286 6.66667 5.83333C6.66667 6.75381 7.41286 7.5 8.33333 7.5C9.25381 7.5 10 6.75381 10 5.83333C10 4.91286 9.25381 4.16667 8.33333 4.16667ZM5 5.83333C5 3.99238 6.49238 2.5 8.33333 2.5C10.1743 2.5 11.6667 3.99238 11.6667 5.83333C11.6667 7.67428 10.1743 9.16667 8.33333 9.16667C6.49238 9.16667 5 7.67428 5 5.83333Z" fill="black"/>
</svg>
