<svg width="24" height="24" viewBox="0 0 24 24" fill="none" xmlns="http://www.w3.org/2000/svg">
<path d="M11.9998 19.9921C7.58381 19.9921 4.00781 16.4161 4.00781 12.0001C4.00781 7.58406 7.58381 4.00806 11.9998 4.00806C16.4158 4.00806 19.9918 7.58406 19.9918 12.0001C19.9918 16.4161 16.4158 19.9921 11.9998 19.9921ZM11.9998 18.3601C15.5038 18.3601 18.3598 15.5281 18.3598 12.0001C18.3598 8.49606 15.5278 5.64006 11.9998 5.64006C8.49581 5.64006 5.63981 8.47206 5.63981 12.0001C5.63981 15.5041 8.47181 18.3601 11.9998 18.3601ZM11.4958 7.00806H12.5038C12.7918 7.00806 13.0078 7.22406 12.9838 7.48806L12.7198 12.6961C12.7198 12.8881 12.5758 13.0081 12.4078 13.0081H11.5918C11.4238 13.0081 11.2798 12.8641 11.2798 12.6961L11.0158 7.48806C11.0158 7.22406 11.2318 7.00806 11.4958 7.00806ZM11.5918 14.5921H12.4078C12.6958 14.5921 12.9118 14.8081 12.8878 15.0961V15.8881C12.8878 16.1761 12.6718 16.3921 12.4078 16.3921H11.5918C11.3038 16.3921 11.0878 16.1761 11.0878 15.8881V15.0961C11.0878 14.8081 11.3038 14.5921 11.5918 14.5921Z" fill="#C7C7C7"/>
</svg>
