<svg width="20" height="20" viewBox="0 0 20 20" fill="none" xmlns="http://www.w3.org/2000/svg">
<path d="M10 13.7499V13.7829M8.12581 7.69163C8.12581 6.63655 8.96528 5.78123 10.0008 5.78123C11.0363 5.78123 11.8758 6.63655 11.8758 7.69163C11.8758 8.74672 11.0363 9.60203 10.0008 9.60203C10.0008 9.60203 10 10.1722 10 10.8756M17.5 5.31248L17.5 14.6875C17.5 16.2408 16.2408 17.5 14.6875 17.5H5.3125C3.7592 17.5 2.5 16.2408 2.5 14.6875V5.31248C2.5 3.75919 3.7592 2.5 5.3125 2.5H14.6875C16.2408 2.5 17.5 3.75919 17.5 5.31248Z" stroke="#7E7E7E" stroke-width="1.5" stroke-linecap="round" stroke-linejoin="round"/>
</svg>
