<svg width="12" height="12" viewBox="0 0 12 12" fill="none" xmlns="http://www.w3.org/2000/svg">
<path d="M6.51575 4.37256C6.44075 4.36506 6.36575 4.35756 6.29075 4.34256C5.82575 4.26006 5.39075 4.05006 5.03825 3.72756C4.01075 2.93631 2.7845 1.93881 2.15825 0.810059H2.027C1.48325 0.810059 1.142 1.39506 1.40825 1.86756C1.90325 2.74131 2.60075 3.48381 3.44075 4.03131C3.72575 4.25256 5.14538 5.10709 5.50538 5.10709L6.51575 4.37256Z" fill="url(#paint0_radial_409_8112)"/>
<path d="M6.51575 4.37256C6.44075 4.36506 6.36575 4.35756 6.29075 4.34256C5.82575 4.26006 5.39075 4.05006 5.03825 3.72756C4.01075 2.93631 2.7845 1.93881 2.15825 0.810059H2.027C1.48325 0.810059 1.142 1.39506 1.40825 1.86756C1.90325 2.74131 2.60075 3.48381 3.44075 4.03131C3.72575 4.25256 5.14538 5.10709 5.50538 5.10709L6.51575 4.37256Z" fill="url(#paint1_radial_409_8112)"/>
<path d="M6.07677 2.76377L6.14282 3.22824L5.55653 3.67657L3.67383 0.806274H4.49052C4.74177 0.806274 4.97427 0.937522 5.09802 1.15502L6.07677 2.76377Z" fill="url(#paint2_linear_409_8112)"/>
<path d="M7.23084 3.24601L6.60449 4.37631H7.5957C7.95945 4.37631 7.3107 4.83615 7.5957 4.6149C8.51705 4.22818 10.1344 2.74506 10.6257 1.87131C10.8957 1.39506 10.5507 0.810059 10.0107 0.810059H9.87945C9.05733 1.66856 8.10764 2.52951 7.23084 3.24601Z" fill="url(#paint3_linear_409_8112)"/>
<path d="M6.00551 4.36081C5.96926 4.36528 5.93302 4.3689 5.89677 4.37253L5.82178 4.46253L5.90052 4.33982C5.44117 4.25549 5.01173 4.04656 4.66302 3.72753C3.63552 2.93628 2.70633 1.93502 2.08008 0.806274H3.72552L6.00551 4.36081Z" fill="url(#paint4_linear_409_8112)"/>
<path d="M6.00551 4.36081C5.96926 4.36528 5.93302 4.3689 5.89677 4.37253L5.82178 4.46253L5.90052 4.33982C5.44117 4.25549 5.01173 4.04656 4.66302 3.72753C3.63552 2.93628 2.70633 1.93502 2.08008 0.806274H3.72552L6.00551 4.36081Z" fill="url(#paint5_linear_409_8112)"/>
<path d="M6.22841 3.82911L6.29612 4.30534C6.69522 4.20537 7.06634 4.00943 7.37443 3.72756C8.40193 2.93631 9.25318 1.93881 9.87943 0.810059H8.16568L6.22841 3.82911Z" fill="url(#paint6_linear_409_8112)"/>
<path d="M6.22841 3.82911L6.29612 4.30534C6.69522 4.20537 7.06634 4.00943 7.37443 3.72756C8.40193 2.93631 9.25318 1.93881 9.87943 0.810059H8.16568L6.22841 3.82911Z" fill="url(#paint7_linear_409_8112)"/>
<path d="M6.15798 4.37255H6.14062L6.21568 4.46256L6.15798 4.37255Z" fill="url(#paint8_linear_409_8112)"/>
<path d="M6.15798 4.37255H6.14062L6.21568 4.46256L6.15798 4.37255Z" fill="url(#paint9_linear_409_8112)"/>
<path d="M8.30803 0.810059H7.54303C7.29178 0.810059 7.06303 0.941312 6.93553 1.15881L4.97803 4.37631H6.02053L8.30803 0.810059Z" fill="url(#paint10_linear_409_8112)"/>
<path d="M8.30803 0.810059H7.54303C7.29178 0.810059 7.06303 0.941312 6.93553 1.15881L4.97803 4.37631H6.02053L8.30803 0.810059Z" fill="url(#paint11_linear_409_8112)"/>
<path d="M6.01402 11.2854C8.09338 11.2854 9.77902 9.55775 9.77902 7.42662C9.77902 5.2955 8.09338 3.56787 6.01402 3.56787C3.93467 3.56787 2.24902 5.2955 2.24902 7.42662C2.24902 9.55775 3.93467 11.2854 6.01402 11.2854Z" fill="url(#paint12_linear_409_8112)"/>
<path d="M6.01402 11.2854C8.09338 11.2854 9.77902 9.55775 9.77902 7.42662C9.77902 5.2955 8.09338 3.56787 6.01402 3.56787C3.93467 3.56787 2.24902 5.2955 2.24902 7.42662C2.24902 9.55775 3.93467 11.2854 6.01402 11.2854Z" fill="url(#paint13_linear_409_8112)"/>
<path d="M6.01398 10.5916C7.71847 10.5916 9.10023 9.17458 9.10023 7.4266C9.10023 5.67862 7.71847 4.2616 6.01398 4.2616C4.3095 4.2616 2.92773 5.67862 2.92773 7.4266C2.92773 9.17458 4.3095 10.5916 6.01398 10.5916Z" fill="url(#paint14_linear_409_8112)"/>
<path d="M6.01398 10.5916C7.71847 10.5916 9.10023 9.17458 9.10023 7.4266C9.10023 5.67862 7.71847 4.2616 6.01398 4.2616C4.3095 4.2616 2.92773 5.67862 2.92773 7.4266C2.92773 9.17458 4.3095 10.5916 6.01398 10.5916Z" fill="url(#paint15_radial_409_8112)"/>
<path d="M6.01398 10.5916C7.71847 10.5916 9.10023 9.17458 9.10023 7.4266C9.10023 5.67862 7.71847 4.2616 6.01398 4.2616C4.3095 4.2616 2.92773 5.67862 2.92773 7.4266C2.92773 9.17458 4.3095 10.5916 6.01398 10.5916Z" fill="url(#paint16_radial_409_8112)"/>
<path d="M6.01779 10.8204C5.13279 10.8204 4.30029 10.4679 3.67779 9.82663C3.05154 9.18538 2.70654 8.33413 2.70654 7.42663C2.70654 6.51913 3.05154 5.66788 3.67779 5.02663C4.96779 3.70288 7.06779 3.70288 8.36154 5.02663C9.65154 6.35038 9.65154 8.50288 8.36154 9.82663C7.73154 10.4679 6.89904 10.8204 6.01779 10.8204ZM6.01404 4.49413C5.28279 4.49413 4.54779 4.77913 3.99279 5.35288C3.45279 5.90788 3.15654 6.64288 3.15654 7.42663C3.15654 8.21038 3.45279 8.94538 3.99279 9.50038C4.53279 10.0554 5.25279 10.3591 6.01404 10.3591C6.77904 10.3591 7.49529 10.0554 8.03529 9.50038C9.14904 8.35663 9.14904 6.49663 8.03529 5.35288C7.48029 4.77913 6.74904 4.49413 6.01404 4.49413Z" fill="url(#paint17_linear_409_8112)"/>
<defs>
<radialGradient id="paint0_radial_409_8112" cx="0" cy="0" r="1" gradientUnits="userSpaceOnUse" gradientTransform="translate(3.91583 2.19949) rotate(124.323) scale(2.43292 4.829)">
<stop offset="0.360874" stop-color="#3FA0F7"/>
<stop offset="1" stop-color="#2F60C2"/>
</radialGradient>
<radialGradient id="paint1_radial_409_8112" cx="0" cy="0" r="1" gradientUnits="userSpaceOnUse" gradientTransform="translate(4.02545 4.60042) rotate(-90) scale(1.20898 1.46298)">
<stop stop-color="#3258BF"/>
<stop offset="1" stop-color="#3258BF" stop-opacity="0"/>
</radialGradient>
<linearGradient id="paint2_linear_409_8112" x1="4.24659" y1="0.806274" x2="6.14282" y2="3.67657" gradientUnits="userSpaceOnUse">
<stop stop-color="#F53F56"/>
<stop offset="1" stop-color="#EA3586"/>
</linearGradient>
<linearGradient id="paint3_linear_409_8112" x1="9.62292" y1="1.45269" x2="9.43049" y2="3.89512" gradientUnits="userSpaceOnUse">
<stop stop-color="#FD4058"/>
<stop offset="1" stop-color="#F62E9E"/>
</linearGradient>
<linearGradient id="paint4_linear_409_8112" x1="4.99009" y1="1.12357" x2="2.91163" y2="4.38765" gradientUnits="userSpaceOnUse">
<stop stop-color="#E3D4F3"/>
<stop offset="1" stop-color="#E3C2F5"/>
</linearGradient>
<linearGradient id="paint5_linear_409_8112" x1="5.21612" y1="0.679034" x2="5.21612" y2="1.30138" gradientUnits="userSpaceOnUse">
<stop stop-color="#D3CCD9"/>
<stop offset="1" stop-color="#D3CCD9" stop-opacity="0"/>
</linearGradient>
<linearGradient id="paint6_linear_409_8112" x1="8.80876" y1="1.12703" x2="6.66238" y2="4.22078" gradientUnits="userSpaceOnUse">
<stop stop-color="#E3D4F3"/>
<stop offset="1" stop-color="#E3C2F5"/>
</linearGradient>
<linearGradient id="paint7_linear_409_8112" x1="9.016" y1="0.682949" x2="9.016" y2="1.30466" gradientUnits="userSpaceOnUse">
<stop stop-color="#D3CCD9"/>
<stop offset="1" stop-color="#D3CCD9" stop-opacity="0"/>
</linearGradient>
<linearGradient id="paint8_linear_409_8112" x1="8.80876" y1="1.12703" x2="6.66238" y2="4.22078" gradientUnits="userSpaceOnUse">
<stop stop-color="#E3D4F3"/>
<stop offset="1" stop-color="#E3C2F5"/>
</linearGradient>
<linearGradient id="paint9_linear_409_8112" x1="9.016" y1="0.682949" x2="9.016" y2="1.30466" gradientUnits="userSpaceOnUse">
<stop stop-color="#D3CCD9"/>
<stop offset="1" stop-color="#D3CCD9" stop-opacity="0"/>
</linearGradient>
<linearGradient id="paint10_linear_409_8112" x1="7.84891" y1="1.01724" x2="6.11453" y2="4.06412" gradientUnits="userSpaceOnUse">
<stop stop-color="#3EA0F4"/>
<stop offset="1" stop-color="#437EE0"/>
</linearGradient>
<linearGradient id="paint11_linear_409_8112" x1="5.65991" y1="2.74438" x2="6.01749" y2="2.98277" gradientUnits="userSpaceOnUse">
<stop stop-color="#6C65C0"/>
<stop offset="1" stop-color="#6C65C0" stop-opacity="0"/>
</linearGradient>
<linearGradient id="paint12_linear_409_8112" x1="8.0265" y1="6.05881" x2="5.00307" y2="11.1682" gradientUnits="userSpaceOnUse">
<stop stop-color="#F4C654"/>
<stop offset="1" stop-color="#DC9729"/>
</linearGradient>
<linearGradient id="paint13_linear_409_8112" x1="4.69838" y1="11.4729" x2="5.589" y2="6.43381" gradientUnits="userSpaceOnUse">
<stop stop-color="#FA8547"/>
<stop offset="1" stop-color="#FA8547" stop-opacity="0"/>
</linearGradient>
<linearGradient id="paint14_linear_409_8112" x1="4.58729" y1="7.02523" x2="9.19111" y2="7.02523" gradientUnits="userSpaceOnUse">
<stop stop-color="#FAA945"/>
<stop offset="1" stop-color="#EC9936"/>
</linearGradient>
<radialGradient id="paint15_radial_409_8112" cx="0" cy="0" r="1" gradientUnits="userSpaceOnUse" gradientTransform="translate(7.2106 7.4266) rotate(180) scale(4.11738 3.59799)">
<stop offset="0.843882" stop-color="#F7B44D" stop-opacity="0"/>
<stop offset="1" stop-color="#F7B44D"/>
</radialGradient>
<radialGradient id="paint16_radial_409_8112" cx="0" cy="0" r="1" gradientUnits="userSpaceOnUse" gradientTransform="translate(5.21271 7.4266) scale(3.88752 3.50397)">
<stop offset="0.826283" stop-color="#D2801F" stop-opacity="0"/>
<stop offset="1" stop-color="#D2801F"/>
</radialGradient>
<linearGradient id="paint17_linear_409_8112" x1="9.03481" y1="6.83416" x2="6.01779" y2="6.83416" gradientUnits="userSpaceOnUse">
<stop stop-color="#F9A842"/>
<stop offset="1" stop-color="#FAA742"/>
<stop offset="1" stop-color="#FAA742"/>
</linearGradient>
</defs>
</svg>
