<svg width="20" height="20" viewBox="0 0 20 20" fill="none" xmlns="http://www.w3.org/2000/svg">
<path d="M16 11.4048C17.0561 12.1938 18 14.1806 18 15.4047C18 15.7861 17.7218 16.0952 17.3785 16.0952H17M13 8.1704C13.6832 7.77519 14.1429 7.03651 14.1429 6.19048C14.1429 5.34444 13.6832 4.60576 13 4.21055M2.62148 16.0952H13.569C13.9122 16.0952 14.1905 15.7861 14.1905 15.4047C14.1905 13.0075 12.1878 11.0642 8.09524 11.0642C4.00272 11.0642 2 13.0075 2 15.4047C2 15.7861 2.27824 16.0952 2.62148 16.0952ZM10.381 6.19048C10.381 7.45284 9.3576 8.47619 8.09524 8.47619C6.83287 8.47619 5.80952 7.45284 5.80952 6.19048C5.80952 4.92811 6.83287 3.90476 8.09524 3.90476C9.3576 3.90476 10.381 4.92811 10.381 6.19048Z" stroke="#7E7E7E" stroke-width="1.5" stroke-linecap="round"/>
</svg>
