<svg width="20" height="20" viewBox="0 0 20 20" fill="none" xmlns="http://www.w3.org/2000/svg">
<path d="M6.32801 6.94508C7.69356 6.94508 8.80055 5.83809 8.80055 4.47254C8.80055 3.10699 7.69356 2 6.32801 2C4.96246 2 3.85547 3.10699 3.85547 4.47254C3.85547 5.83809 4.96246 6.94508 6.32801 6.94508Z" stroke="#7E7E7E" stroke-width="1.5" stroke-linecap="round" stroke-linejoin="round"/>
<path d="M8.41177 14.3927L7.95197 18.0713H4.71641L4.09828 13.1262H2V11.2718C2 10.1242 2.45587 9.02361 3.26733 8.21216C4.07879 7.4007 5.17937 6.94482 6.32695 6.94482C7.47452 6.94482 8.5751 7.4007 9.38656 8.21216C10.0107 8.83629 10.4245 9.63147 10.5822 10.4875" stroke="#7E7E7E" stroke-width="1.5" stroke-linecap="round" stroke-linejoin="round"/>
<path d="M10.3633 13.708C10.3633 13.1056 10.8517 12.6172 11.4541 12.6172H16.9083C17.5108 12.6172 17.9991 13.1056 17.9991 13.708V16.9806C17.9991 17.583 17.5108 18.0713 16.9083 18.0713H11.4541C10.8517 18.0713 10.3633 17.583 10.3633 16.9806V13.708Z" stroke="#7E7E7E" stroke-width="1.5" stroke-linecap="round" stroke-linejoin="round"/>
<path d="M12.6914 12.6167V11.812C12.6914 11.1292 13.2449 10.5757 13.9277 10.5757H14.4378C15.1205 10.5757 15.6741 11.1292 15.6741 11.812V12.6167" stroke="#7E7E7E" stroke-width="1.5" stroke-linecap="round" stroke-linejoin="round"/>
</svg>
