<svg width="20" height="20" viewBox="0 0 20 20" fill="none" xmlns="http://www.w3.org/2000/svg">
<path d="M9.73913 14.3261V13.5761C9.54022 13.5761 9.34945 13.6551 9.2088 13.7958L9.73913 14.3261ZM5.56522 18.5H4.81522C4.81522 18.8033 4.99795 19.0768 5.2782 19.1929C5.55846 19.309 5.88105 19.2448 6.09555 19.0303L5.56522 18.5ZM5.56522 14.3261H6.31522C6.31522 13.9119 5.97943 13.5761 5.56522 13.5761V14.3261ZM9 3.25C9.41421 3.25 9.75 2.91421 9.75 2.5C9.75 2.08579 9.41421 1.75 9 1.75V3.25ZM18.75 10C18.75 9.58579 18.4142 9.25 18 9.25C17.5858 9.25 17.25 9.58579 17.25 10H18.75ZM9.2088 13.7958L5.03489 17.9697L6.09555 19.0303L10.2695 14.8564L9.2088 13.7958ZM6.31522 18.5V14.3261H4.81522V18.5H6.31522ZM5.56522 13.5761H4V15.0761H5.56522V13.5761ZM2.75 12.3261V4.5H1.25V12.3261H2.75ZM16 13.5761H9.73913V15.0761H16V13.5761ZM4 3.25H9V1.75H4V3.25ZM17.25 10V12.3261H18.75V10H17.25ZM16 15.0761C17.5188 15.0761 18.75 13.8449 18.75 12.3261H17.25C17.25 13.0164 16.6904 13.5761 16 13.5761V15.0761ZM2.75 4.5C2.75 3.80964 3.30964 3.25 4 3.25V1.75C2.48122 1.75 1.25 2.98122 1.25 4.5H2.75ZM4 13.5761C3.30964 13.5761 2.75 13.0164 2.75 12.3261H1.25C1.25 13.8449 2.48122 15.0761 4 15.0761V13.5761ZM17.25 4.5C17.25 5.74264 16.2426 6.75 15 6.75V8.25C17.0711 8.25 18.75 6.57107 18.75 4.5H17.25ZM15 6.75C13.7574 6.75 12.75 5.74264 12.75 4.5H11.25C11.25 6.57107 12.9289 8.25 15 8.25V6.75ZM12.75 4.5C12.75 3.25736 13.7574 2.25 15 2.25V0.75C12.9289 0.75 11.25 2.42893 11.25 4.5H12.75ZM15 2.25C16.2426 2.25 17.25 3.25736 17.25 4.5H18.75C18.75 2.42893 17.0711 0.75 15 0.75V2.25Z" fill="black"/>
</svg>
