<svg width="24" height="24" viewBox="0 0 24 24" fill="none" xmlns="http://www.w3.org/2000/svg">
<path d="M20.7129 19.7949C21.082 20.2051 21.082 20.8203 20.6719 21.1895L19.5234 22.3379C19.1543 22.748 18.5391 22.748 18.1289 22.3379L14.0684 18.2773C13.8633 18.0723 13.7812 17.8262 13.7812 17.5801V16.8828C12.3047 18.0312 10.5 18.6875 8.53125 18.6875C3.81445 18.6875 0 14.873 0 10.1562C0 5.48047 3.81445 1.625 8.53125 1.625C13.207 1.625 17.0625 5.48047 17.0625 10.1562C17.0625 12.166 16.3652 13.9707 15.2578 15.4062H15.9141C16.1602 15.4062 16.4062 15.5293 16.6113 15.6934L20.7129 19.7949ZM8.53125 15.4062C11.4023 15.4062 13.7812 13.0684 13.7812 10.1562C13.7812 7.28516 11.4023 4.90625 8.53125 4.90625C5.61914 4.90625 3.28125 7.28516 3.28125 10.1562C3.28125 13.0684 5.61914 15.4062 8.53125 15.4062Z" fill="#3182F7"/>
</svg>
