<svg width="20" height="20" viewBox="0 0 20 20" fill="none" xmlns="http://www.w3.org/2000/svg">
<g clip-path="url(#clip0_476_19237)">
<path d="M11.6666 2.72425C11.6666 2.14008 11.1933 1.66675 10.6091 1.66675H9.39163C8.80663 1.66675 8.33329 2.14008 8.33329 2.72425C8.33329 3.20591 8.00329 3.61925 7.55413 3.79591C7.48329 3.82425 7.41246 3.85425 7.34329 3.88425C6.90079 4.07591 6.37496 4.01758 6.03329 3.67675C5.83499 3.47859 5.56613 3.36728 5.28579 3.36728C5.00546 3.36728 4.73659 3.47859 4.53829 3.67675L3.67663 4.53841C3.47847 4.73671 3.36716 5.00558 3.36716 5.28591C3.36716 5.56625 3.47847 5.83512 3.67663 6.03341C4.01829 6.37508 4.07663 6.90008 3.88329 7.34341C3.85292 7.41318 3.82375 7.48347 3.79579 7.55425C3.61913 8.00341 3.20579 8.33341 2.72413 8.33341C2.13996 8.33341 1.66663 8.80675 1.66663 9.39091V10.6092C1.66663 11.1934 2.13996 11.6667 2.72413 11.6667C3.20579 11.6667 3.61913 11.9967 3.79579 12.4459C3.82413 12.5167 3.85413 12.5876 3.88329 12.6567C4.07579 13.0992 4.01746 13.6251 3.67663 13.9667C3.47847 14.165 3.36716 14.4339 3.36716 14.7142C3.36716 14.9946 3.47847 15.2635 3.67663 15.4617L4.53829 16.3234C4.73659 16.5216 5.00546 16.6329 5.28579 16.6329C5.56613 16.6329 5.83499 16.5216 6.03329 16.3234C6.37496 15.9817 6.89996 15.9234 7.34329 16.1159C7.41246 16.1467 7.48329 16.1759 7.55413 16.2042C8.00329 16.3809 8.33329 16.7942 8.33329 17.2759C8.33329 17.8601 8.80663 18.3334 9.39079 18.3334H10.6091C11.1933 18.3334 11.6666 17.8601 11.6666 17.2759C11.6666 16.7942 11.9966 16.3809 12.4458 16.2034C12.5166 16.1759 12.5875 16.1467 12.6566 16.1167C13.0991 15.9234 13.625 15.9826 13.9658 16.3234C14.064 16.4217 14.1806 16.4996 14.3089 16.5528C14.4373 16.6059 14.5748 16.6333 14.7137 16.6333C14.8526 16.6333 14.9902 16.6059 15.1185 16.5528C15.2468 16.4996 15.3634 16.4217 15.4616 16.3234L16.3233 15.4617C16.5214 15.2635 16.6328 14.9946 16.6328 14.7142C16.6328 14.4339 16.5214 14.165 16.3233 13.9667C15.9816 13.6251 15.9233 13.1001 16.1158 12.6567C16.1466 12.5876 16.1758 12.5167 16.2041 12.4459C16.3808 11.9967 16.7941 11.6667 17.2758 11.6667C17.86 11.6667 18.3333 11.1934 18.3333 10.6092V9.39175C18.3333 8.80758 17.86 8.33425 17.2758 8.33425C16.7941 8.33425 16.3808 8.00425 16.2033 7.55508C16.1754 7.48429 16.1462 7.414 16.1158 7.34425C15.9241 6.90175 15.9825 6.37591 16.3233 6.03425C16.5214 5.83595 16.6328 5.56708 16.6328 5.28675C16.6328 5.00641 16.5214 4.73755 16.3233 4.53925L15.4616 3.67758C15.2633 3.47942 14.9945 3.36811 14.7141 3.36811C14.4338 3.36811 14.1649 3.47942 13.9666 3.67758C13.625 4.01925 13.1 4.07758 12.6566 3.88508C12.5869 3.85442 12.5166 3.82497 12.4458 3.79675C11.9966 3.61925 11.6666 3.20508 11.6666 2.72425Z" stroke="black" stroke-width="1.5" stroke-linecap="round" stroke-linejoin="round"/>
<path d="M13.3333 10.0001C13.3333 10.8841 12.9821 11.732 12.357 12.3571C11.7319 12.9822 10.884 13.3334 9.99996 13.3334C9.1159 13.3334 8.26806 12.9822 7.64294 12.3571C7.01782 11.732 6.66663 10.8841 6.66663 10.0001C6.66663 9.11603 7.01782 8.26818 7.64294 7.64306C8.26806 7.01794 9.1159 6.66675 9.99996 6.66675C10.884 6.66675 11.7319 7.01794 12.357 7.64306C12.9821 8.26818 13.3333 9.11603 13.3333 10.0001Z" stroke="black" stroke-width="1.5" stroke-linecap="round" stroke-linejoin="round"/>
</g>
<defs>
<clipPath id="clip0_476_19237">
<rect width="20" height="20" fill="white"/>
</clipPath>
</defs>
</svg>
