<svg width="20" height="20" viewBox="0 0 20 20" fill="none" xmlns="http://www.w3.org/2000/svg">
<g clip-path="url(#clip0_51_1377)">
<path d="M11.6665 2.72414C11.6665 2.13997 11.1932 1.66664 10.609 1.66664H9.3915C8.8065 1.66664 8.33317 2.13997 8.33317 2.72414C8.33317 3.20581 8.00317 3.61914 7.554 3.79581C7.48317 3.82414 7.41234 3.85414 7.34317 3.88414C6.90067 4.07581 6.37484 4.01747 6.03317 3.67664C5.83487 3.47848 5.56601 3.36717 5.28567 3.36717C5.00533 3.36717 4.73647 3.47848 4.53817 3.67664L3.6765 4.53831C3.47835 4.73661 3.36703 5.00547 3.36703 5.28581C3.36703 5.56614 3.47835 5.83501 3.6765 6.03331C4.01817 6.37497 4.0765 6.89997 3.88317 7.34331C3.85279 7.41308 3.82362 7.48337 3.79567 7.55414C3.619 8.00331 3.20567 8.33331 2.724 8.33331C2.13984 8.33331 1.6665 8.80664 1.6665 9.39081V10.6091C1.6665 11.1933 2.13984 11.6666 2.724 11.6666C3.20567 11.6666 3.619 11.9966 3.79567 12.4458C3.824 12.5166 3.854 12.5875 3.88317 12.6566C4.07567 13.0991 4.01734 13.625 3.6765 13.9666C3.47835 14.1649 3.36703 14.4338 3.36703 14.7141C3.36703 14.9945 3.47835 15.2633 3.6765 15.4616L4.53817 16.3233C4.73647 16.5215 5.00533 16.6328 5.28567 16.6328C5.56601 16.6328 5.83487 16.5215 6.03317 16.3233C6.37484 15.9816 6.89984 15.9233 7.34317 16.1158C7.41234 16.1466 7.48317 16.1758 7.554 16.2041C8.00317 16.3808 8.33317 16.7941 8.33317 17.2758C8.33317 17.86 8.8065 18.3333 9.39067 18.3333H10.609C11.1932 18.3333 11.6665 17.86 11.6665 17.2758C11.6665 16.7941 11.9965 16.3808 12.4457 16.2033C12.5165 16.1758 12.5873 16.1466 12.6565 16.1166C13.099 15.9233 13.6248 15.9825 13.9657 16.3233C14.0639 16.4216 14.1805 16.4995 14.3088 16.5527C14.4371 16.6058 14.5747 16.6332 14.7136 16.6332C14.8525 16.6332 14.99 16.6058 15.1184 16.5527C15.2467 16.4995 15.3633 16.4216 15.4615 16.3233L16.3232 15.4616C16.5213 15.2633 16.6326 14.9945 16.6326 14.7141C16.6326 14.4338 16.5213 14.1649 16.3232 13.9666C15.9815 13.625 15.9232 13.1 16.1157 12.6566C16.1465 12.5875 16.1757 12.5166 16.204 12.4458C16.3807 11.9966 16.794 11.6666 17.2757 11.6666C17.8598 11.6666 18.3332 11.1933 18.3332 10.6091V9.39164C18.3332 8.80747 17.8598 8.33414 17.2757 8.33414C16.794 8.33414 16.3807 8.00414 16.2032 7.55497C16.1752 7.48419 16.1461 7.4139 16.1157 7.34414C15.924 6.90164 15.9823 6.37581 16.3232 6.03414C16.5213 5.83584 16.6326 5.56698 16.6326 5.28664C16.6326 5.0063 16.5213 4.73744 16.3232 4.53914L15.4615 3.67747C15.2632 3.47932 14.9943 3.36801 14.714 3.36801C14.4337 3.36801 14.1648 3.47932 13.9665 3.67747C13.6248 4.01914 13.0998 4.07747 12.6565 3.88497C12.5867 3.85431 12.5165 3.82487 12.4457 3.79664C11.9965 3.61914 11.6665 3.20497 11.6665 2.72414Z" stroke="#7E7E7E" stroke-width="1.5" stroke-linecap="round" stroke-linejoin="round"/>
<path d="M13.3332 9.99997C13.3332 10.884 12.982 11.7319 12.3569 12.357C11.7317 12.9821 10.8839 13.3333 9.99984 13.3333C9.11578 13.3333 8.26794 12.9821 7.64281 12.357C7.01769 11.7319 6.6665 10.884 6.6665 9.99997C6.6665 9.11592 7.01769 8.26807 7.64281 7.64295C8.26794 7.01783 9.11578 6.66664 9.99984 6.66664C10.8839 6.66664 11.7317 7.01783 12.3569 7.64295C12.982 8.26807 13.3332 9.11592 13.3332 9.99997Z" stroke="#7E7E7E" stroke-width="1.5" stroke-linecap="round" stroke-linejoin="round"/>
</g>
<defs>
<clipPath id="clip0_51_1377">
<rect width="20" height="20" fill="white"/>
</clipPath>
</defs>
</svg>
