<svg width="27" height="27" viewBox="0 0 27 27" fill="none" xmlns="http://www.w3.org/2000/svg">
<g clip-path="url(#clip0_442_946)">
<path d="M12.4999 15.375C14.0877 15.375 15.3749 14.0878 15.3749 12.5C15.3749 10.9122 14.0877 9.625 12.4999 9.625C10.9121 9.625 9.62488 10.9122 9.62488 12.5C9.62488 14.0878 10.9121 15.375 12.4999 15.375Z" stroke="#C4C5D0" stroke-width="2.04558" stroke-linecap="round" stroke-linejoin="round"/>
<path d="M19.5916 15.375C19.4641 15.6641 19.426 15.9847 19.4824 16.2956C19.5388 16.6065 19.687 16.8933 19.9079 17.1192L19.9654 17.1767C20.1436 17.3547 20.285 17.5661 20.3814 17.7988C20.4779 18.0315 20.5275 18.2809 20.5275 18.5328C20.5275 18.7846 20.4779 19.034 20.3814 19.2667C20.285 19.4994 20.1436 19.7108 19.9654 19.8888C19.7874 20.067 19.576 20.2084 19.3433 20.3048C19.1106 20.4013 18.8612 20.4509 18.6094 20.4509C18.3575 20.4509 18.1081 20.4013 17.8754 20.3048C17.6427 20.2084 17.4313 20.067 17.2533 19.8888L17.1958 19.8313C16.97 19.6104 16.6831 19.4622 16.3722 19.4058C16.0613 19.3494 15.7407 19.3875 15.4516 19.515C15.1682 19.6365 14.9265 19.8382 14.7562 20.0953C14.5859 20.3525 14.4945 20.6537 14.4933 20.9621V21.125C14.4933 21.6334 14.2914 22.1209 13.9319 22.4803C13.5725 22.8398 13.085 23.0417 12.5766 23.0417C12.0683 23.0417 11.5808 22.8398 11.2214 22.4803C10.8619 22.1209 10.66 21.6334 10.66 21.125V21.0388C10.6526 20.7216 10.5499 20.414 10.3653 20.1559C10.1807 19.8978 9.92277 19.7012 9.62498 19.5917C9.33593 19.4641 9.0153 19.4261 8.70442 19.4825C8.39354 19.5388 8.10667 19.687 7.88081 19.908L7.82331 19.9655C7.64531 20.1437 7.43392 20.285 7.20124 20.3815C6.96856 20.4779 6.71915 20.5276 6.46727 20.5276C6.21539 20.5276 5.96598 20.4779 5.7333 20.3815C5.50062 20.285 5.28924 20.1437 5.11123 19.9655C4.93303 19.7875 4.79165 19.5761 4.6952 19.3434C4.59874 19.1107 4.5491 18.8613 4.5491 18.6094C4.5491 18.3575 4.59874 18.1081 4.6952 17.8754C4.79165 17.6428 4.93303 17.4314 5.11123 17.2534L5.16873 17.1959C5.38966 16.97 5.53787 16.6832 5.59423 16.3723C5.6506 16.0614 5.61255 15.7408 5.48498 15.4517C5.3635 15.1683 5.16179 14.9265 4.90468 14.7563C4.64756 14.586 4.34628 14.4946 4.0379 14.4934H3.87498C3.36665 14.4934 2.87914 14.2914 2.51969 13.932C2.16025 13.5726 1.95831 13.085 1.95831 12.5767C1.95831 12.0684 2.16025 11.5809 2.51969 11.2214C2.87914 10.862 3.36665 10.66 3.87498 10.66H3.96123C4.27843 10.6526 4.58607 10.5499 4.84414 10.3654C5.10222 10.1808 5.29879 9.92283 5.40831 9.62504C5.53588 9.33599 5.57394 9.01536 5.51757 8.70448C5.4612 8.3936 5.31299 8.10673 5.09206 7.88087L5.03456 7.82337C4.85636 7.64537 4.71499 7.43398 4.61853 7.2013C4.52208 6.96862 4.47243 6.71921 4.47243 6.46733C4.47243 6.21545 4.52208 5.96604 4.61853 5.73336C4.71499 5.50068 4.85636 5.2893 5.03456 5.11129C5.21257 4.93309 5.42396 4.79171 5.65664 4.69526C5.88932 4.5988 6.13873 4.54916 6.39061 4.54916C6.64248 4.54916 6.89189 4.5988 7.12457 4.69526C7.35725 4.79171 7.56864 4.93309 7.74665 5.11129L7.80415 5.16879C8.03001 5.38972 8.31687 5.53793 8.62775 5.5943C8.93863 5.65066 9.25927 5.61261 9.54831 5.48504H9.62498C9.90843 5.36356 10.1502 5.16185 10.3204 4.90474C10.4907 4.64763 10.5821 4.34634 10.5833 4.03796V3.87504C10.5833 3.36671 10.7852 2.8792 11.1447 2.51975C11.5041 2.16031 11.9916 1.95837 12.5 1.95837C13.0083 1.95837 13.4958 2.16031 13.8553 2.51975C14.2147 2.8792 14.4166 3.36671 14.4166 3.87504V3.96129C14.4179 4.26967 14.5093 4.57096 14.6795 4.82807C14.8498 5.08518 15.0915 5.28689 15.375 5.40837C15.664 5.53594 15.9847 5.574 16.2955 5.51763C16.6064 5.46126 16.8933 5.31306 17.1191 5.09212L17.1766 5.03462C17.3547 4.85642 17.566 4.71505 17.7987 4.61859C18.0314 4.52214 18.2808 4.47249 18.5327 4.47249C18.7846 4.47249 19.034 4.52214 19.2667 4.61859C19.4993 4.71505 19.7107 4.85642 19.8887 5.03462C20.0669 5.21263 20.2083 5.42402 20.3048 5.6567C20.4012 5.88938 20.4509 6.13879 20.4509 6.39067C20.4509 6.64255 20.4012 6.89196 20.3048 7.12464C20.2083 7.35731 20.0669 7.5687 19.8887 7.74671L19.8312 7.80421C19.6103 8.03007 19.4621 8.31693 19.4057 8.62781C19.3494 8.93869 19.3874 9.25933 19.515 9.54837V9.62504C19.6365 9.90849 19.8382 10.1502 20.0953 10.3205C20.3524 10.4908 20.6537 10.5821 20.9621 10.5834H21.125C21.6333 10.5834 22.1208 10.7853 22.4803 11.1448C22.8397 11.5042 23.0416 11.9917 23.0416 12.5C23.0416 13.0084 22.8397 13.4959 22.4803 13.8553C22.1208 14.2148 21.6333 14.4167 21.125 14.4167H21.0387C20.7304 14.4179 20.4291 14.5093 20.172 14.6796C19.9148 14.8499 19.7131 15.0916 19.5916 15.375V15.375Z" stroke="#C4C5D0" stroke-width="2.04558" stroke-linecap="round" stroke-linejoin="round"/>
</g>
<defs>
<clipPath id="clip0_442_946">
<rect width="23" height="23" fill="white" transform="translate(1 1)"/>
</clipPath>
</defs>
</svg>
