<svg width="15" height="14" viewBox="0 0 15 14" fill="none" xmlns="http://www.w3.org/2000/svg">
<path d="M12.165 13.5625H2.83496C2.57487 13.5519 2.31942 13.4901 2.08324 13.3807C1.84705 13.2712 1.63477 13.1163 1.45853 12.9247C1.28228 12.7331 1.14554 12.5087 1.05613 12.2642C0.966723 12.0198 0.926395 11.7601 0.937458 11.5V9.24999C0.937458 9.10081 0.996721 8.95774 1.10221 8.85225C1.2077 8.74676 1.35077 8.68749 1.49996 8.68749C1.64914 8.68749 1.79222 8.74676 1.89771 8.85225C2.00319 8.95774 2.06246 9.10081 2.06246 9.24999V11.5C2.04309 11.7227 2.11019 11.9443 2.24983 12.1188C2.38947 12.2934 2.59094 12.4075 2.81246 12.4375H12.165C12.3865 12.4075 12.5879 12.2934 12.7276 12.1188C12.8672 11.9443 12.9343 11.7227 12.915 11.5V9.24999C12.915 9.10081 12.9742 8.95774 13.0797 8.85225C13.1852 8.74676 13.3283 8.68749 13.4775 8.68749C13.6266 8.68749 13.7697 8.74676 13.8752 8.85225C13.9807 8.95774 14.04 9.10081 14.04 9.24999V11.5C14.0624 12.0215 13.878 12.5308 13.5269 12.9171C13.1757 13.3033 12.6863 13.5353 12.165 13.5625ZM10.5 4.56249C10.4261 4.56284 10.3528 4.54843 10.2846 4.52009C10.2163 4.49176 10.1544 4.45008 10.1025 4.39749L7.49996 1.79499L4.89746 4.39749C4.79083 4.49685 4.64979 4.55095 4.50407 4.54838C4.35834 4.5458 4.2193 4.48677 4.11624 4.38371C4.01318 4.28065 3.95415 4.14161 3.95158 3.99589C3.94901 3.85016 4.0031 3.70912 4.10246 3.60249L7.10246 0.602493C7.20793 0.497155 7.35089 0.437988 7.49996 0.437988C7.64902 0.437988 7.79199 0.497155 7.89746 0.602493L10.8975 3.60249C11.0028 3.70796 11.062 3.85093 11.062 3.99999C11.062 4.14906 11.0028 4.29202 10.8975 4.39749C10.8455 4.45008 10.7836 4.49176 10.7154 4.52009C10.6471 4.54843 10.5739 4.56284 10.5 4.56249Z" fill="#808080"/>
</svg>
