<svg width="20" height="20" viewBox="0 0 20 20" fill="none" xmlns="http://www.w3.org/2000/svg">
<path fill-rule="evenodd" clip-rule="evenodd" d="M9.99967 2.5C8.89461 2.5 7.8348 2.93899 7.0534 3.72039C6.27199 4.50179 5.83301 5.5616 5.83301 6.66667C5.83301 7.77174 6.27199 8.83154 7.0534 9.61294C7.10836 9.66791 7.16471 9.72119 7.22235 9.77273C6.50858 10.0998 5.85148 10.5534 5.28563 11.1193C4.03539 12.3695 3.33301 14.0652 3.33301 15.8333V16.6667C3.33301 17.1269 3.7061 17.5 4.16634 17.5C4.62658 17.5 4.99967 17.1269 4.99967 16.6667V15.8333C4.99967 14.5073 5.52646 13.2355 6.46414 12.2978C7.40182 11.3601 8.67359 10.8333 9.99967 10.8333C11.3258 10.8333 12.5975 11.3601 13.5352 12.2978C14.4729 13.2355 14.9997 14.5073 14.9997 15.8333V16.6667C14.9997 17.1269 15.3728 17.5 15.833 17.5C16.2932 17.5 16.6663 17.1269 16.6663 16.6667V15.8333C16.6663 14.0652 15.964 12.3695 14.7137 11.1193C14.1479 10.5534 13.4908 10.0998 12.777 9.77273C12.8346 9.72119 12.891 9.66791 12.946 9.61294C13.7274 8.83154 14.1663 7.77174 14.1663 6.66667C14.1663 5.5616 13.7274 4.50179 12.946 3.72039C12.1645 2.93899 11.1047 2.5 9.99967 2.5ZM8.23191 4.8989C8.70075 4.43006 9.33663 4.16667 9.99967 4.16667C10.6627 4.16667 11.2986 4.43006 11.7674 4.8989C12.2363 5.36774 12.4997 6.00363 12.4997 6.66667C12.4997 7.32971 12.2363 7.96559 11.7674 8.43443C11.2986 8.90327 10.6627 9.16667 9.99967 9.16667C9.33663 9.16667 8.70075 8.90327 8.23191 8.43443C7.76307 7.96559 7.49967 7.32971 7.49967 6.66667C7.49967 6.00363 7.76307 5.36774 8.23191 4.8989Z" fill="black"/>
</svg>
