<svg width="13" height="11" viewBox="0 0 13 11" fill="none" xmlns="http://www.w3.org/2000/svg">
<path fill-rule="evenodd" clip-rule="evenodd" d="M5.19255 0.824179C5.76601 -0.195299 7.23382 -0.195299 7.80728 0.824178L11.9925 8.26458C12.555 9.26449 11.8324 10.5 10.6851 10.5H2.31468C1.16744 10.5 0.444873 9.26449 1.00732 8.26459L5.19255 0.824179ZM7.24985 8.25006C7.24985 8.66428 6.91406 9.00006 6.49985 9.00006C6.08563 9.00006 5.74985 8.66428 5.74985 8.25006C5.74985 7.83585 6.08563 7.50006 6.49985 7.50006C6.91406 7.50006 7.24985 7.83585 7.24985 8.25006ZM6.49985 2.25006C6.08563 2.25006 5.74985 2.58585 5.74985 3.00006V5.25006C5.74985 5.66428 6.08563 6.00006 6.49985 6.00006C6.91406 6.00006 7.24985 5.66428 7.24985 5.25006V3.00006C7.24985 2.58585 6.91406 2.25006 6.49985 2.25006Z" fill="white"/>
</svg>
