<svg xmlns="http://www.w3.org/2000/svg">
    <symbol id="arrow-right" viewBox="0 0 6 14">
        <path stroke="currentColor" stroke-linecap="round" stroke-linejoin="round" stroke-width="1.5" d="M1 1l6 6-6 6"/>
    </symbol>
    <symbol id="check" viewBox="0 0 16 16">
        <path fill="currentColor" fill-rule="evenodd" d="M13.471 4.529a.667.667 0 0 1 0 .942l-6.333 6.334a.667.667 0 0 1-.943 0l-3-3a.667.667 0 0 1 .943-.943l2.529 2.529 5.862-5.862a.667.667 0 0 1 .942 0z" clip-rule="evenodd"/>
    </symbol>
    <symbol id="certificate" viewBox="0 0 16 16">
        <path fill="#7EF422" d="M16 8c0 .512-.72.946-.815 1.43-.098.498.398 1.174.208 1.632-.194.467-1.024.593-1.302 1.008-.28.417-.08 1.233-.434 1.587-.354.354-1.17.155-1.588.434-.414.278-.54 1.108-1.007 1.302-.458.19-1.134-.306-1.632-.208-.484.096-.918.815-1.43.815-.512 0-.946-.72-1.43-.815-.498-.098-1.174.398-1.632.208-.467-.194-.593-1.024-1.007-1.302-.418-.28-1.234-.08-1.588-.434-.354-.354-.154-1.17-.434-1.588-.278-.414-1.108-.54-1.302-1.007-.19-.458.307-1.134.208-1.632C.716 8.93 0 8.512 0 8c0-.512.72-.946.815-1.43.098-.498-.398-1.174-.208-1.632.19-.459 1.024-.593 1.302-1.007.28-.418.08-1.233.434-1.588.354-.354 1.17-.154 1.587-.434.415-.278.541-1.108 1.008-1.302.466-.193 1.134.307 1.632.208C7.054.719 7.488 0 8 0c.512 0 .946.72 1.43.815.498.098 1.174-.398 1.632-.208.459.19.593 1.024 1.007 1.302.415.278 1.233.08 1.588.434.354.354.154 1.17.434 1.588.278.414 1.108.54 1.302 1.007.19.458-.307 1.134-.208 1.632.096.484.815.918.815 1.43z"/>
        <path fill="#7EF422" d="M16 8c0 .512-.72.946-.815 1.43-.098.498.398 1.174.208 1.632-.194.467-1.024.593-1.302 1.008-.28.417-.08 1.233-.434 1.587-.354.354-1.17.155-1.588.434-.414.278-.54 1.108-1.007 1.302-.458.19-1.134-.306-1.632-.208-.484.096-.918.815-1.43.815-.512 0-.946-.72-1.43-.815-.498-.098-1.174.398-1.632.208-.467-.194-.593-1.024-1.007-1.302-.418-.28-1.234-.08-1.588-.434-.354-.354-.154-1.17-.434-1.588-.278-.414-1.108-.54-1.302-1.007-.19-.458.307-1.134.208-1.632C.716 8.93 0 8.512 0 8c0-.512.72-.946.815-1.43.098-.498-.398-1.174-.208-1.632.19-.459 1.024-.593 1.302-1.007.28-.418.08-1.233.434-1.588.354-.354 1.17-.154 1.587-.434.415-.278.541-1.108 1.008-1.302.466-.193 1.134.307 1.632.208C7.054.719 7.488 0 8 0c.512 0 .946.72 1.43.815.498.098 1.174-.398 1.632-.208.459.19.593 1.024 1.007 1.302.415.278 1.233.08 1.588.434.354.354.154 1.17.434 1.588.278.414 1.108.54 1.302 1.007.19.458-.307 1.134-.208 1.632.096.484.815.918.815 1.43z"/>
        <path fill-rule="evenodd" d="M11.846 5.185A.7.7 0 0 1 12 5.63a.7.7 0 0 1-.154.445L7.91 10.803a.565.565 0 0 1-.182.146.48.48 0 0 1-.429 0 .565.565 0 0 1-.181-.146L5.16 8.455a.646.646 0 0 1-.117-.205.74.74 0 0 1-.004-.487.652.652 0 0 1 .115-.207.53.53 0 0 1 .172-.138.45.45 0 0 1 .407.004.535.535 0 0 1 .17.141l1.61 1.933 3.59-4.311a.53.53 0 0 1 .17-.137.45.45 0 0 1 .403 0 .53.53 0 0 1 .17.137z" clip-rule="evenodd"/>
    </symbol>
    <symbol id="chevron" viewBox="0 0 15 15">
        <path stroke="currentColor" stroke-linecap="round" stroke-linejoin="round" stroke-width="2" d="M6.75 10.625L9.875 7.5 6.75 4.375"/>
    </symbol>
    <symbol id="exclamation" viewBox="0 0 10 14">
        <path fill="currentColor" d="M.64 2v10c0 .442.153.866.426 1.178.272.313.64.489 1.026.489h7.691a.409.409 0 0 0 .308-.147.54.54 0 0 0 .127-.353.54.54 0 0 0-.127-.354.41.41 0 0 0-.308-.146H2.092a.545.545 0 0 1-.41-.196.72.72 0 0 1-.17-.471h8.271a.41.41 0 0 0 .308-.146.54.54 0 0 0 .127-.354V2c0-.219-.037-.436-.11-.638a1.701 1.701 0 0 0-.315-.54 1.456 1.456 0 0 0-.47-.362 1.29 1.29 0 0 0-.556-.127H2.092c-.385 0-.754.176-1.026.488A1.8 1.8 0 0 0 .64 2zm4.354 4.833V3.5a.54.54 0 0 1 .128-.354A.409.409 0 0 1 5.429 3a.41.41 0 0 1 .308.146.54.54 0 0 1 .128.354v3.333a.54.54 0 0 1-.128.354.409.409 0 0 1-.308.146.409.409 0 0 1-.307-.146.54.54 0 0 1-.128-.354zM6.01 8.667a.72.72 0 0 1-.17.471.545.545 0 0 1-.41.195.545.545 0 0 1-.411-.195.72.72 0 0 1-.17-.471.72.72 0 0 1 .17-.472.545.545 0 0 1 .41-.195c.154 0 .302.07.41.195a.72.72 0 0 1 .17.472z"/>
    </symbol>
    <symbol id="close" viewBox="0 0 24 24">
        <path stroke="currentColor" stroke-linecap="round" stroke-linejoin="round" stroke-width="2.5" d="M7 7l10 10M7 17L17 7"/>
    </symbol>
    <symbol id="headset-help" viewBox="0 0 19 19">
        <g stroke="currentColor" stroke-width="1.5">
            <path stroke-linecap="round" stroke-linejoin="round" d="M16.3 7.8a6.8 6.8 0 0 0-13.6 0"/>
            <path d="M1 11.573V9.977c0-.78.53-1.46 1.288-1.649l1.478-.37a.51.51 0 0 1 .634.495v4.644a.51.51 0 0 1-.634.495l-1.478-.37A1.7 1.7 0 0 1 1 11.572zm17 0V9.977a1.7 1.7 0 0 0-1.288-1.649l-1.478-.37a.51.51 0 0 0-.634.495v4.644a.51.51 0 0 0 .634.495l1.478-.37A1.7 1.7 0 0 0 18 11.572zm-1.7 2.177v.425a1.7 1.7 0 0 1-1.7 1.7h-2.975"/>
            <path d="M10.775 17.15h-2.55a1.275 1.275 0 0 1 0-2.55h2.55a1.275 1.275 0 0 1 0 2.55z"/>
        </g>
    </symbol>
    <symbol id="pencil" viewBox="0 0 12.5 12.5">
        <path stroke="currentColor" stroke-linecap="round" stroke-linejoin="round" stroke-width="1.5" d="M5.283 3.44l2.158-2.157 3.776 3.776-2.158 2.158M5.283 3.44L1.007 7.718a.763.763 0 0 0-.224.54v3.459h3.46c.202 0 .396-.08.54-.224l4.276-4.276M5.283 3.44L9.06 7.217"/>
    </symbol>
    <symbol id="menu" viewBox="0 0 24 24">
        <path fill-rule="evenodd" d="M3 18h18v-2H3v2zm0-5h18v-2H3v2zm0-7v2h18V6H3z" clip-rule="evenodd"/>
    </symbol>
    <symbol id="plus" viewBox="0 0 12 12">
        <path stroke="currentColor" stroke-linecap="round" stroke-linejoin="round" stroke-width="1.5" d="M1.875 6h8.25M6 1.875v8.25"/>
    </symbol>
    <symbol id="log-out" viewBox="0 0 20 20">
        <path stroke="currentColor" stroke-linecap="round" stroke-linejoin="round" stroke-width="1.5" d="M8 10h7m0 0l-3 3m3-3l-3-3m3-3V3a2 2 0 0 0-2-2H3a2 2 0 0 0-2 2v14a2 2 0 0 0 2 2h10a2 2 0 0 0 2-2v-1"/>
    </symbol>
    <symbol id="alert" viewBox="0 0 24 24">
        <path stroke="currentColor" stroke-linecap="round" stroke-linejoin="round" stroke-width="2" d="M18.833 8.84c0-1.814-.667-3.554-1.855-4.837C15.791 2.721 14.18 2 12.5 2c-1.68 0-3.29.72-4.478 2.003C6.834 5.286 6.167 7.026 6.167 8.84 6.167 16.82 3 19.1 3 19.1h19s-3.167-2.28-3.167-10.26zM14.4 21.95c-.193.289-.47.529-.804.695a2.46 2.46 0 0 1-1.096.255c-.385 0-.763-.088-1.096-.255a2.077 2.077 0 0 1-.804-.695"/>
    </symbol>
    <symbol id="eye" viewBox="0 0 16 16">
        <path id="Vector" d="M8 2.66675C4.36364 2.66675 1.25818 4.92857 0 8.12129C1.25818 11.314 4.36364 13.5758 8 13.5758C11.6364 13.5758 14.7418 11.314 16 8.12129C14.7418 4.92857 11.6364 2.66675 8 2.66675ZM8 11.7577C5.99273 11.7577 4.36364 10.1286 4.36364 8.12129C4.36364 6.11402 5.99273 4.48493 8 4.48493C10.0073 4.48493 11.6364 6.11402 11.6364 8.12129C11.6364 10.1286 10.0073 11.7577 8 11.7577ZM8 5.93948C6.79273 5.93948 5.81818 6.91402 5.81818 8.12129C5.81818 9.32857 6.79273 10.3031 8 10.3031C9.20727 10.3031 10.1818 9.32857 10.1818 8.12129C10.1818 6.91402 9.20727 5.93948 8 5.93948Z" fill="currentColor"/>
    </symbol>
</svg>